<svg width="89" height="50" viewBox="0 0 89 50" fill="none" xmlns="http://www.w3.org/2000/svg">
<path d="M2.48402 42.3721C2.44863 42.2825 2.39909 42.207 2.34012 42.1409C2.28114 42.0749 2.21273 42.0183 2.1396 41.9687C2.06412 41.9192 1.98627 41.8767 1.90606 41.839C1.8235 41.8036 1.74329 41.7682 1.66309 41.7375C1.58288 41.7069 1.50504 41.6762 1.43191 41.6455C1.35878 41.6149 1.29509 41.5842 1.24083 41.5488C1.18657 41.5134 1.14175 41.4733 1.10873 41.4285C1.0757 41.3837 1.05919 41.3318 1.05919 41.2705C1.05919 41.1902 1.07334 41.1195 1.10165 41.0605C1.12996 41.0015 1.1677 40.952 1.21488 40.9142C1.26206 40.8741 1.31868 40.8458 1.38237 40.827C1.44606 40.8081 1.51683 40.7987 1.59468 40.7987C1.71263 40.7987 1.83058 40.8105 1.94617 40.8364C2.06176 40.8623 2.17499 40.8977 2.2835 40.9449L2.3472 40.3858C2.21509 40.3434 2.08063 40.3127 1.94381 40.2938C1.80935 40.275 1.67252 40.2655 1.53098 40.2655C1.38945 40.2655 1.24791 40.2844 1.10637 40.3198C0.967186 40.3552 0.837442 40.4141 0.719492 40.4943C0.65344 40.5392 0.596825 40.5911 0.549645 40.6524C0.502465 40.7137 0.462362 40.7798 0.434054 40.8482C0.405746 40.9166 0.382156 40.9921 0.368003 41.0699C0.353849 41.1478 0.346772 41.2256 0.346772 41.3035C0.346772 41.3978 0.356208 41.4851 0.377439 41.5606C0.398669 41.6385 0.429336 41.7069 0.469439 41.7706C0.509542 41.8319 0.559081 41.8909 0.620415 41.9428C0.679389 41.9947 0.750159 42.0442 0.828006 42.0914C0.870468 42.1173 0.915288 42.1433 0.95775 42.1669C1.00257 42.1905 1.04739 42.2093 1.09221 42.2282C1.17714 42.2612 1.26442 42.2966 1.3517 42.3296C1.43898 42.3627 1.52155 42.4051 1.60411 42.4499C1.63478 42.4665 1.66545 42.4901 1.69847 42.516C1.7315 42.5419 1.75745 42.5703 1.77632 42.5962C1.79755 42.6269 1.8117 42.6599 1.82114 42.6953C1.83058 42.7307 1.83529 42.7684 1.83529 42.8038C1.83529 42.8816 1.81642 42.9477 1.77868 43.0019C1.74094 43.0562 1.6914 43.101 1.63478 43.1364C1.57581 43.1718 1.51211 43.1978 1.44134 43.2143C1.37057 43.2308 1.30216 43.2402 1.23847 43.2402C1.10401 43.2402 0.971904 43.2213 0.839801 43.186C0.707697 43.1506 0.58503 43.0987 0.469439 43.0326L0.405746 43.646C0.549645 43.6813 0.693543 43.7144 0.837442 43.7403C0.98134 43.7663 1.1276 43.7804 1.27621 43.7804C1.4437 43.7804 1.60411 43.7615 1.75745 43.7262C1.91078 43.6908 2.04524 43.6318 2.16319 43.5492C2.28114 43.469 2.37314 43.3629 2.44391 43.2308C2.51232 43.101 2.54771 42.9406 2.54771 42.7519C2.54771 42.6929 2.54299 42.6316 2.53592 42.5632C2.52884 42.4948 2.51233 42.4358 2.49109 42.3792L2.48402 42.3721Z" fill="white"/>
<path d="M4.13059 40.3198L2.80956 43.712H3.5149L3.81213 42.9335H5.18742L5.47994 43.712H6.23245L4.90198 40.3198H4.13059ZM4.00557 42.4004L4.49624 41.0015H4.50567L4.99634 42.4004H4.00557Z" fill="white"/>
<path d="M8.73298 42.2777C8.73298 42.4004 8.72355 42.5184 8.70468 42.6339C8.6858 42.7495 8.65042 42.851 8.59852 42.9406C8.54662 43.0303 8.47349 43.101 8.38385 43.1553C8.29185 43.2095 8.1739 43.2355 8.03 43.2355C7.88611 43.2355 7.77052 43.2072 7.68087 43.1529C7.58887 43.0987 7.5181 43.0255 7.46621 42.9359C7.41431 42.8463 7.37656 42.7448 7.35769 42.6292C7.33882 42.5136 7.32702 42.3981 7.32702 42.2777V40.3174H6.64528V42.4853C6.64528 42.7142 6.67594 42.9076 6.73964 43.0704C6.80333 43.2331 6.89297 43.3652 7.01328 43.469C7.13359 43.5728 7.27749 43.6483 7.44733 43.6979C7.61718 43.745 7.81298 43.771 8.02765 43.771C8.24231 43.771 8.43811 43.7474 8.61032 43.6979C8.78252 43.6483 8.92642 43.5728 9.04673 43.469C9.16704 43.3652 9.25668 43.2331 9.32037 43.0704C9.38407 42.9076 9.41473 42.7142 9.41473 42.4853V40.3174H8.73298V42.2777Z" fill="white"/>
<path d="M12.9414 41.2587C12.8966 41.1407 12.8353 41.0298 12.7621 40.9284C12.6867 40.827 12.5923 40.7373 12.4791 40.6618C12.3847 40.6005 12.2833 40.5486 12.1748 40.5038C12.0662 40.459 11.9554 40.4259 11.8421 40.3976C11.7265 40.3693 11.611 40.3504 11.4954 40.3387C11.3798 40.3269 11.2665 40.3198 11.1557 40.3198H10.1814V43.712H11.1085C11.3986 43.712 11.6629 43.6837 11.9035 43.6247C12.1441 43.5658 12.3493 43.469 12.5215 43.3369C12.6937 43.2025 12.8258 43.0279 12.9226 42.8132C13.0193 42.5962 13.0665 42.332 13.0665 42.0159C13.0665 41.8885 13.057 41.7588 13.0381 41.6314C13.0193 41.5016 12.9886 41.379 12.9438 41.261L12.9414 41.2587ZM12.2738 42.4759C12.2196 42.6174 12.1441 42.7401 12.045 42.8439C11.9459 42.9477 11.8303 43.0303 11.6935 43.0892C11.5567 43.1482 11.4034 43.1789 11.2359 43.1789H10.8584V40.8553H11.2359C11.4034 40.8553 11.5567 40.8836 11.6935 40.9449C11.8303 41.0039 11.9483 41.0865 12.0474 41.1902C12.1464 41.294 12.2219 41.4167 12.2738 41.5583C12.3257 41.6998 12.354 41.8531 12.354 42.0183C12.354 42.1834 12.3281 42.3367 12.2738 42.4783V42.4759Z" fill="white"/>
<path d="M14.312 40.3198H13.6302V43.712H14.312V40.3198Z" fill="white"/>
<path d="M17.0697 42.2235H18.2798V41.6904H17.0697V40.8553H18.3907V40.3198H16.3879V43.712H18.4001V43.1789H17.0697V42.2235Z" fill="white"/>
<path d="M19.7731 40.3198H19.0913V43.712H21.0894V43.1789H19.7731V40.3198Z" fill="white"/>
<path d="M22.2028 42.2235H23.413V41.6904H22.2028V40.8553H23.5239V40.3198H21.5211V43.712H23.5333V43.1789H22.2028V42.2235Z" fill="white"/>
<path d="M26.4938 43.1576C26.4325 43.1742 26.3664 43.1907 26.3004 43.2025C26.2343 43.2143 26.1683 43.2237 26.1022 43.2284C26.0362 43.2331 25.9772 43.2379 25.9206 43.2379C25.7413 43.2379 25.5785 43.2072 25.437 43.1458C25.2955 43.0845 25.1728 42.9996 25.0761 42.8934C24.9794 42.7873 24.9015 42.6575 24.8472 42.5113C24.793 42.365 24.767 42.2023 24.767 42.0277C24.767 41.8531 24.793 41.6974 24.8449 41.5465C24.8968 41.3978 24.9699 41.2657 25.069 41.1549C25.1657 41.044 25.286 40.9567 25.4252 40.893C25.5667 40.8293 25.7248 40.7963 25.9041 40.7963C25.9772 40.7963 26.0433 40.7987 26.1046 40.8057C26.1659 40.8128 26.2249 40.8199 26.2839 40.834C26.3428 40.8482 26.3995 40.8647 26.4561 40.8883C26.5127 40.9119 26.574 40.9402 26.6377 40.9779L26.6849 40.4047C26.5622 40.3622 26.4348 40.3269 26.3075 40.3033C26.1801 40.2773 26.0503 40.2655 25.9182 40.2655C25.6941 40.2655 25.4818 40.2891 25.286 40.3363C25.0902 40.3835 24.9133 40.4566 24.7552 40.5604C24.5972 40.6642 24.4651 40.7939 24.3542 40.9567C24.2433 41.1195 24.1631 41.3153 24.1136 41.5488C24.0947 41.6337 24.0806 41.721 24.0688 41.813C24.0593 41.9027 24.0523 41.9923 24.0523 42.0819C24.0523 42.2046 24.0617 42.3249 24.0782 42.4429C24.0947 42.5608 24.1254 42.6741 24.1655 42.7826C24.2056 42.8911 24.2599 42.9925 24.3283 43.0892C24.3943 43.186 24.4792 43.2732 24.576 43.3534C24.6727 43.4313 24.7741 43.4997 24.8779 43.554C24.9817 43.6082 25.0926 43.653 25.2035 43.6861C25.3167 43.7191 25.4323 43.7427 25.5502 43.7568C25.6682 43.771 25.7908 43.7781 25.9135 43.7781C26.0433 43.7781 26.173 43.7686 26.3027 43.7497C26.4325 43.7309 26.5599 43.7049 26.6849 43.6695L26.6566 43.101C26.6071 43.1246 26.5504 43.1459 26.4867 43.1624L26.4938 43.1576Z" fill="white"/>
<path d="M26.8359 40.8553H27.8101V43.712H28.4919V40.8553H29.4614V40.3198H26.8359V40.8553Z" fill="white"/>
<path d="M31.7709 42.2636C31.7497 42.2235 31.7237 42.1881 31.6954 42.1574C31.6671 42.1268 31.6341 42.0985 31.5963 42.0772C31.5586 42.056 31.5161 42.0418 31.4689 42.0348V42.0253C31.5727 42.0112 31.6694 41.9829 31.7544 41.938C31.8417 41.8956 31.9148 41.839 31.9761 41.7706C32.0375 41.7021 32.0846 41.6243 32.1177 41.5347C32.1507 41.445 32.1672 41.3459 32.1672 41.2398C32.1672 41.0935 32.1483 40.9685 32.1106 40.8647C32.0728 40.7609 32.0209 40.676 31.9549 40.6076C31.8888 40.5392 31.811 40.4873 31.719 40.4472C31.6293 40.4094 31.5326 40.3788 31.4288 40.3599C31.325 40.341 31.2165 40.3292 31.1033 40.3245C30.9901 40.3198 30.8768 40.3174 30.766 40.3174H29.8365V43.7096H30.5183V42.3013H30.7376C30.8108 42.3013 30.8721 42.3084 30.9193 42.3202C30.9688 42.332 31.0113 42.3509 31.0443 42.3792C31.0773 42.4075 31.108 42.4429 31.134 42.4877C31.1576 42.5325 31.1835 42.5868 31.2094 42.6528L31.6176 43.712H32.3748L31.8322 42.3863C31.8157 42.3461 31.7945 42.306 31.7732 42.2659L31.7709 42.2636ZM31.4477 41.4261C31.4406 41.4733 31.4241 41.5134 31.4029 41.5465C31.3722 41.596 31.3298 41.6337 31.2755 41.6644C31.2212 41.6951 31.1646 41.7163 31.1033 41.7328C31.042 41.7493 30.9783 41.7588 30.9169 41.7635C30.8532 41.7682 30.7943 41.7706 30.7424 41.7706H30.5183V40.8576H30.7424C30.8249 40.8576 30.9075 40.8576 30.9948 40.8647C31.0797 40.8694 31.1575 40.8859 31.2283 40.9142C31.2967 40.9426 31.3533 40.9874 31.3982 41.0463C31.4406 41.1053 31.4642 41.1902 31.4642 41.2988C31.4642 41.3389 31.4595 41.3813 31.4524 41.4285L31.4477 41.4261Z" fill="white"/>
<path d="M35.5925 40.7444C35.4509 40.5911 35.2787 40.4731 35.0711 40.3882C34.8635 40.3056 34.6276 40.2632 34.3611 40.2632C34.0945 40.2632 33.8539 40.3056 33.6463 40.3882C33.4387 40.4708 33.2641 40.5887 33.1249 40.742C32.9834 40.8954 32.8773 41.077 32.8065 41.2917C32.7334 41.5064 32.698 41.7446 32.698 42.0065C32.698 42.2683 32.7334 42.5066 32.8065 42.7212C32.8796 42.9359 32.9858 43.1223 33.1249 43.278C33.2665 43.4336 33.4387 43.554 33.6463 43.6412C33.8539 43.7285 34.0921 43.771 34.3611 43.771C34.63 43.771 34.8659 43.7285 35.0735 43.6412C35.2811 43.554 35.4533 43.4336 35.5948 43.278C35.734 43.1223 35.8401 42.9359 35.9133 42.7212C35.9864 42.5042 36.0218 42.2683 36.0218 42.0088C36.0218 41.7493 35.9864 41.5111 35.9133 41.2964C35.8401 41.0817 35.734 40.9001 35.5925 40.7468V40.7444ZM35.2622 42.4523C35.2292 42.5986 35.1726 42.7307 35.0994 42.8463C35.0239 42.9618 34.9272 43.0562 34.8046 43.127C34.6842 43.1977 34.5356 43.2331 34.3611 43.2331C34.1865 43.2331 34.045 43.1977 33.9223 43.127C33.802 43.0562 33.7029 42.9642 33.6274 42.851C33.5519 42.7377 33.4953 42.608 33.4599 42.4617C33.4245 42.3155 33.4057 42.1692 33.4057 42.0183C33.4057 41.8673 33.4222 41.721 33.4576 41.5748C33.493 41.4285 33.5472 41.2988 33.6251 41.1808C33.7029 41.0652 33.7996 40.9709 33.9223 40.9001C34.0426 40.827 34.1889 40.7916 34.3611 40.7916C34.5333 40.7916 34.6795 40.827 34.7998 40.8954C34.9201 40.9661 35.0192 41.0558 35.0947 41.1714C35.1702 41.2846 35.2268 41.4144 35.2598 41.5583C35.2952 41.7021 35.3117 41.8508 35.3117 42.0017C35.3117 42.1527 35.2952 42.3013 35.2598 42.4476L35.2622 42.4523Z" fill="white"/>
<path d="M38.7488 42.8581H38.7393L37.4466 40.3198H36.6115V43.712H37.2603V41.1761H37.2697L38.5695 43.712H39.3999V40.3198H38.7488V42.8581Z" fill="white"/>
<path d="M40.7752 40.3198H40.0934V43.712H40.7752V40.3198Z" fill="white"/>
<path d="M43.7734 43.1576C43.7121 43.1742 43.646 43.1907 43.58 43.2025C43.5139 43.2143 43.4479 43.2237 43.3818 43.2284C43.3158 43.2331 43.2568 43.2379 43.2002 43.2379C43.0209 43.2379 42.8581 43.2072 42.7166 43.1458C42.5751 43.0845 42.4524 42.9996 42.3557 42.8934C42.259 42.7873 42.1811 42.6575 42.1269 42.5113C42.0726 42.365 42.0466 42.2023 42.0466 42.0277C42.0466 41.8531 42.0726 41.6974 42.1245 41.5465C42.1764 41.3978 42.2495 41.2657 42.3486 41.1549C42.4453 41.044 42.5656 40.9567 42.7048 40.893C42.8463 40.8293 43.0044 40.7963 43.1837 40.7963C43.2568 40.7963 43.3229 40.7987 43.3842 40.8057C43.4455 40.8128 43.5045 40.8199 43.5635 40.834C43.6225 40.8482 43.6791 40.8647 43.7357 40.8883C43.7923 40.9119 43.8536 40.9402 43.9173 40.9779L43.9645 40.4047C43.8418 40.3622 43.7145 40.3269 43.5871 40.3033C43.4597 40.2773 43.3299 40.2655 43.1978 40.2655C42.9737 40.2655 42.7614 40.2891 42.5656 40.3363C42.3698 40.3835 42.1929 40.4566 42.0349 40.5604C41.8768 40.6642 41.7447 40.7939 41.6338 40.9567C41.523 41.1195 41.4427 41.3153 41.3932 41.5488C41.3743 41.6337 41.3602 41.721 41.3484 41.813C41.339 41.9027 41.3319 41.9923 41.3319 42.0819C41.3319 42.2046 41.3413 42.3249 41.3578 42.4429C41.3743 42.5608 41.405 42.6741 41.4451 42.7826C41.4852 42.8911 41.5395 42.9925 41.6079 43.0892C41.6739 43.186 41.7589 43.2732 41.8556 43.3534C41.9523 43.4313 42.0537 43.4997 42.1575 43.554C42.2613 43.6082 42.3722 43.653 42.4831 43.6861C42.5963 43.7191 42.7119 43.7427 42.8298 43.7568C42.9478 43.771 43.0705 43.7781 43.1931 43.7781C43.3229 43.7781 43.4526 43.7686 43.5824 43.7497C43.7121 43.7309 43.8395 43.7049 43.9645 43.6695L43.9362 43.101C43.8867 43.1246 43.83 43.1459 43.7664 43.1624L43.7734 43.1576Z" fill="white"/>
<path d="M47.8875 42.2777C47.8875 42.4004 47.8781 42.5184 47.8592 42.6339C47.8403 42.7495 47.8049 42.851 47.753 42.9406C47.7012 43.0303 47.628 43.101 47.5384 43.1553C47.4464 43.2095 47.3284 43.2355 47.1845 43.2355C47.0406 43.2355 46.925 43.2072 46.8354 43.1529C46.7434 43.0987 46.6726 43.0255 46.6207 42.9359C46.5688 42.8463 46.5311 42.7448 46.5122 42.6292C46.4933 42.5136 46.4816 42.3981 46.4816 42.2777V40.3174H45.7998V42.4853C45.7998 42.7142 45.8305 42.9076 45.8942 43.0704C45.9579 43.2331 46.0475 43.3652 46.1678 43.469C46.2881 43.5728 46.432 43.6483 46.6019 43.6979C46.7717 43.745 46.9675 43.771 47.1822 43.771C47.3968 43.771 47.5926 43.7474 47.7648 43.6979C47.937 43.6483 48.0809 43.5728 48.2013 43.469C48.3216 43.3652 48.4112 43.2331 48.4749 43.0704C48.5386 42.9076 48.5693 42.7142 48.5693 42.4853V40.3174H47.8875V42.2777Z" fill="white"/>
<path d="M52.0865 40.3198H51.4378V42.8581H51.4284L50.1333 40.3198H49.2982V43.712H49.9493V41.1761H49.9587L51.2561 43.712H52.0865V40.3198Z" fill="white"/>
<path d="M53.4642 40.3198H52.7824V43.712H53.4642V40.3198Z" fill="white"/>
<path d="M55.8491 43.712L56.9909 40.3198H56.3162L55.4552 42.9831H55.4457L54.5752 40.3198H53.8463L55.0117 43.712H55.8491Z" fill="white"/>
<path d="M59.4348 40.8553V40.3198H57.432V43.712H59.4442V43.1789H58.1137V42.2235H59.3239V41.6904H58.1137V40.8553H59.4348Z" fill="white"/>
<path d="M62.0108 42.2636C61.9896 42.2235 61.9636 42.1881 61.9353 42.1574C61.907 42.1268 61.874 42.0985 61.8362 42.0772C61.7985 42.056 61.756 42.0418 61.7088 42.0348V42.0253C61.8126 42.0112 61.9093 41.9829 61.9943 41.938C62.0792 41.8932 62.1547 41.839 62.216 41.7706C62.2774 41.7021 62.3245 41.6243 62.3576 41.5347C62.3906 41.445 62.4071 41.3459 62.4071 41.2398C62.4071 41.0935 62.3882 40.9685 62.3505 40.8647C62.3127 40.7609 62.2608 40.676 62.1948 40.6076C62.1287 40.5392 62.0509 40.4873 61.9589 40.4472C61.8692 40.4094 61.7725 40.3788 61.6687 40.3599C61.5649 40.341 61.4564 40.3292 61.3432 40.3245C61.23 40.3198 61.1167 40.3174 61.0059 40.3174H60.0764V43.7096H60.7582V42.3013H60.9775C61.0507 42.3013 61.112 42.3084 61.1592 42.3202C61.2087 42.332 61.2512 42.3509 61.2842 42.3792C61.3172 42.4075 61.3479 42.4429 61.3739 42.4877C61.3974 42.5325 61.4234 42.5868 61.4493 42.6528L61.8575 43.712H62.6147L62.0721 42.3863C62.0556 42.3461 62.0344 42.306 62.0131 42.2659L62.0108 42.2636ZM61.6876 41.4261C61.6805 41.4733 61.664 41.5134 61.6428 41.5465C61.6121 41.596 61.5697 41.6337 61.5154 41.6644C61.4611 41.6951 61.4045 41.7163 61.3432 41.7328C61.2819 41.7493 61.2182 41.7588 61.1568 41.7635C61.0931 41.7682 61.0342 41.7706 60.9823 41.7706H60.7582V40.8576H60.9823C61.0648 40.8576 61.1474 40.8576 61.2347 40.8647C61.3196 40.8694 61.3974 40.8859 61.4682 40.9142C61.5366 40.9426 61.5932 40.9874 61.6381 41.0463C61.6805 41.1053 61.7041 41.1902 61.7041 41.2988C61.7041 41.3389 61.6994 41.3813 61.6923 41.4285L61.6876 41.4261Z" fill="white"/>
<path d="M65.1883 42.7448C65.1883 42.6858 65.1836 42.6245 65.1765 42.5561C65.1695 42.4877 65.153 42.4287 65.1317 42.3721C65.0963 42.2825 65.0468 42.207 64.9878 42.1409C64.9289 42.0749 64.8604 42.0183 64.7873 41.9687C64.7118 41.9192 64.634 41.8767 64.5538 41.839C64.4736 41.8012 64.391 41.7682 64.3108 41.7375C64.2306 41.7069 64.1527 41.6762 64.0796 41.6455C64.0065 41.6149 63.9428 41.5842 63.8885 41.5488C63.8319 41.5134 63.7895 41.4733 63.7564 41.4285C63.7234 41.3837 63.7069 41.3318 63.7069 41.2705C63.7069 41.1902 63.7211 41.1195 63.7494 41.0605C63.7777 41.0015 63.8154 40.952 63.8626 40.9142C63.9098 40.8741 63.9664 40.8458 64.0301 40.827C64.0938 40.8081 64.1645 40.7987 64.24 40.7987C64.358 40.7987 64.4759 40.8105 64.5915 40.8364C64.7071 40.8623 64.8203 40.8977 64.9289 40.9449L64.9925 40.3858C64.8604 40.3434 64.726 40.3127 64.5892 40.2938C64.4547 40.275 64.3155 40.2655 64.1763 40.2655C64.0372 40.2655 63.8933 40.2844 63.7517 40.3198C63.6125 40.3552 63.4828 40.4141 63.3648 40.4943C63.2988 40.5392 63.2422 40.5911 63.195 40.6524C63.1478 40.7137 63.1077 40.7798 63.0794 40.8482C63.0487 40.9166 63.0275 40.9921 63.0134 41.0699C62.9992 41.1478 62.9921 41.2256 62.9921 41.3035C62.9921 41.3978 63.0016 41.4851 63.0228 41.5606C63.044 41.6361 63.0747 41.7069 63.1148 41.7706C63.1549 41.8319 63.2044 41.8909 63.2658 41.9428C63.3247 41.9947 63.3955 42.0442 63.4734 42.0914C63.5158 42.1173 63.5606 42.1433 63.6031 42.1669C63.6479 42.1905 63.6927 42.2093 63.7376 42.2282C63.8225 42.2612 63.9098 42.2966 63.9971 42.3296C64.0843 42.365 64.1669 42.4051 64.2495 42.4499C64.2801 42.4665 64.3108 42.4901 64.3438 42.516C64.3768 42.5419 64.4028 42.5703 64.4217 42.5962C64.4429 42.6269 64.4571 42.6599 64.4665 42.6953C64.4759 42.7307 64.4807 42.7684 64.4807 42.8038C64.4807 42.8816 64.4618 42.9477 64.424 43.0019C64.3863 43.0562 64.3367 43.101 64.2801 43.1364C64.2212 43.1718 64.1575 43.1978 64.0867 43.2143C64.0159 43.2308 63.9475 43.2402 63.8815 43.2402C63.747 43.2402 63.6149 43.2213 63.4852 43.186C63.3554 43.1506 63.2304 43.0987 63.1148 43.0326L63.0511 43.646C63.195 43.6813 63.3389 43.7144 63.4828 43.7403C63.6267 43.7663 63.773 43.7804 63.9216 43.7804C64.0891 43.7804 64.2495 43.7615 64.4028 43.7262C64.5561 43.6908 64.6906 43.6318 64.8085 43.5492C64.9265 43.469 65.0185 43.3629 65.0893 43.2308C65.1577 43.101 65.1931 42.9406 65.1931 42.7519L65.1883 42.7448Z" fill="white"/>
<path d="M66.4292 40.3198H65.7474V43.712H66.4292V40.3198Z" fill="white"/>
<path d="M68.4556 43.712V40.8553H69.4251V40.3198H66.8019V40.8553H67.7738V43.712H68.4556Z" fill="white"/>
<path d="M70.7603 43.712H71.4397V42.3721L72.6545 40.3198H71.9351L71.1188 41.7446L70.3144 40.3198H69.5194L70.7603 42.3721V43.712Z" fill="white"/>
<path d="M1.05211 33.5235C1.08749 33.5589 1.1276 33.5872 1.17478 33.6061C1.22196 33.625 1.2715 33.6368 1.32575 33.6368C1.38001 33.6368 1.42955 33.6273 1.47673 33.6061C1.52391 33.5872 1.56401 33.5589 1.5994 33.5235C1.63478 33.4881 1.66309 33.448 1.68196 33.4009C1.70319 33.3537 1.71263 33.3041 1.71263 33.2499C1.71263 33.1956 1.70319 33.1461 1.68196 33.0989C1.66073 33.0517 1.63478 33.0116 1.5994 32.9762C1.56401 32.9409 1.52391 32.9125 1.47673 32.8937C1.42955 32.8724 1.38001 32.863 1.32575 32.863C1.2715 32.863 1.22196 32.8724 1.17478 32.8937C1.1276 32.9149 1.08749 32.9409 1.05211 32.9762C1.01672 33.0116 0.988417 33.0517 0.969545 33.0989C0.948314 33.1461 0.938878 33.1956 0.938878 33.2499C0.938878 33.3041 0.948314 33.3537 0.969545 33.4009C0.990776 33.448 1.01672 33.4881 1.05211 33.5235Z" fill="white"/>
<path d="M1.95796 33.5235C1.99335 33.5589 2.03345 33.5872 2.08063 33.6061C2.12781 33.625 2.17735 33.6368 2.23161 33.6368C2.28586 33.6368 2.3354 33.6273 2.38258 33.6061C2.42976 33.5872 2.46986 33.5589 2.50525 33.5235C2.54063 33.4881 2.56894 33.448 2.58781 33.4009C2.60904 33.3537 2.61848 33.3041 2.61848 33.2499C2.61848 33.1956 2.60904 33.1461 2.58781 33.0989C2.56658 33.0517 2.54063 33.0116 2.50525 32.9762C2.46986 32.9409 2.42976 32.9125 2.38258 32.8937C2.3354 32.8724 2.28586 32.863 2.23161 32.863C2.17735 32.863 2.12781 32.8724 2.08063 32.8937C2.03345 32.9149 1.99335 32.9409 1.95796 32.9762C1.92258 33.0116 1.89427 33.0517 1.8754 33.0989C1.85417 33.1461 1.84473 33.1956 1.84473 33.2499C1.84473 33.3041 1.85417 33.3537 1.8754 33.4009C1.89427 33.448 1.92258 33.4881 1.95796 33.5235Z" fill="white"/>
<path d="M0.759595 36.7624C0.898775 36.8002 1.0356 36.819 1.17006 36.819C1.30452 36.819 1.43427 36.8049 1.55693 36.7766C1.6796 36.7483 1.80699 36.7011 1.93673 36.6303C1.96268 36.6846 1.99806 36.7365 2.04289 36.7836C2.08771 36.8308 2.14432 36.8733 2.21273 36.9087C2.28114 36.9441 2.36607 36.9724 2.46515 36.9936C2.56422 37.0148 2.68217 37.0243 2.81899 37.0243H3.76023C3.91121 37.0243 4.03859 37.003 4.14475 36.9582C4.2509 36.9134 4.33818 36.8544 4.40895 36.7766C4.51747 36.8521 4.64249 36.911 4.78403 36.9559C4.90434 36.9936 5.05296 37.0125 5.21809 37.0196C5.23932 37.0196 5.26291 37.0243 5.28886 37.0243C5.29357 37.0243 5.29593 37.0243 5.30065 37.0243H6.87174V34.545H6.0862V36.3614H5.31009C5.18742 36.3614 5.06947 36.352 4.95388 36.3307C4.84065 36.3119 4.73449 36.2812 4.63542 36.2411C4.64013 36.2057 4.64249 36.1727 4.64485 36.1373C4.64721 36.1019 4.64957 36.0665 4.64957 36.0288V34.5473H3.86403V35.9226C3.86403 36.0075 3.85695 36.0783 3.8428 36.1349C3.82864 36.1915 3.80741 36.2364 3.77674 36.2694C3.74844 36.3024 3.70833 36.326 3.66115 36.3402C3.61397 36.3543 3.55736 36.3614 3.49131 36.3614H2.95582C2.89448 36.3614 2.84258 36.3543 2.8072 36.3425C2.76945 36.3307 2.74115 36.3095 2.71992 36.2812C2.69869 36.2529 2.68453 36.2128 2.67745 36.1656C2.67038 36.1184 2.66802 36.0571 2.66802 35.9863V34.0331H1.88719V34.3751C1.76924 34.4034 1.64186 34.4365 1.50268 34.4789C1.3635 34.519 1.22432 34.5686 1.08514 34.6252C0.945955 34.6818 0.809134 34.7502 0.679389 34.8257C0.549645 34.9035 0.434054 34.9908 0.332618 35.0899C0.231181 35.189 0.148616 35.2998 0.0896416 35.4249C0.0306669 35.5499 0 35.6867 0 35.8401C0 36.0146 0.0353849 36.1632 0.106155 36.2859C0.176924 36.4086 0.268925 36.51 0.382156 36.5902C0.495388 36.6681 0.620415 36.727 0.759595 36.7648V36.7624ZM0.830365 35.5027C0.884622 35.4225 0.960109 35.3517 1.05919 35.2881C1.15826 35.2244 1.27857 35.1677 1.41775 35.1182C1.55693 35.0687 1.71263 35.0262 1.88719 34.9908V36.0146C1.80699 36.0665 1.71263 36.109 1.60647 36.142C1.50032 36.175 1.38945 36.1892 1.27385 36.1892C1.21016 36.1892 1.14883 36.1821 1.08749 36.168C1.0238 36.1538 0.969545 36.1302 0.920006 36.0972C0.870468 36.0642 0.830365 36.0193 0.799698 35.9651C0.769031 35.9108 0.752518 35.8448 0.752518 35.7646C0.752518 35.6679 0.778467 35.5806 0.832724 35.5004L0.830365 35.5027Z" fill="white"/>
<path d="M4.81234 37.5338C4.76516 37.5126 4.71562 37.5031 4.66137 37.5031C4.60711 37.5031 4.55757 37.5126 4.51039 37.5338C4.46321 37.5527 4.42311 37.581 4.38772 37.6164C4.35234 37.6518 4.32403 37.6919 4.30516 37.739C4.28393 37.7862 4.27449 37.8358 4.27449 37.89C4.27449 37.9443 4.28393 37.9938 4.30516 38.041C4.32403 38.0882 4.35234 38.1283 4.38772 38.1637C4.42311 38.199 4.46321 38.2274 4.51039 38.2462C4.55757 38.2651 4.60711 38.2769 4.66137 38.2769C4.71562 38.2769 4.76516 38.2675 4.81234 38.2462C4.85952 38.225 4.89962 38.199 4.93501 38.1637C4.97039 38.1283 4.9987 38.0882 5.01757 38.041C5.0388 37.9938 5.04824 37.9443 5.04824 37.89C5.04824 37.8358 5.0388 37.7862 5.01757 37.739C4.99634 37.6919 4.97039 37.6518 4.93501 37.6164C4.89962 37.581 4.85952 37.5527 4.81234 37.5338Z" fill="white"/>
<path d="M3.90649 37.5338C3.85931 37.5126 3.80977 37.5031 3.75551 37.5031C3.70126 37.5031 3.65172 37.5126 3.60454 37.5338C3.55736 37.5527 3.51726 37.581 3.48187 37.6164C3.44649 37.6518 3.41818 37.6919 3.39931 37.739C3.38043 37.7862 3.36864 37.8358 3.36864 37.89C3.36864 37.9443 3.37807 37.9938 3.39931 38.041C3.42054 38.0882 3.44649 38.1283 3.48187 38.1637C3.51726 38.199 3.55736 38.2274 3.60454 38.2462C3.65172 38.2651 3.70126 38.2769 3.75551 38.2769C3.80977 38.2769 3.85931 38.2675 3.90649 38.2462C3.95367 38.225 3.99377 38.199 4.02916 38.1637C4.06454 38.1283 4.09285 38.0882 4.11172 38.041C4.13295 37.9938 4.14239 37.9443 4.14239 37.89C4.14239 37.8358 4.13295 37.7862 4.11172 37.739C4.09049 37.6919 4.06454 37.6518 4.02916 37.6164C3.99377 37.581 3.95367 37.5527 3.90649 37.5338Z" fill="white"/>
<path d="M6.19235 33.6816C6.22774 33.717 6.26784 33.7453 6.31502 33.7641C6.3622 33.7854 6.41174 33.7948 6.46599 33.7948C6.52025 33.7948 6.56979 33.7854 6.61697 33.7641C6.66415 33.7453 6.70425 33.717 6.73964 33.6816C6.77502 33.6462 6.80333 33.6061 6.8222 33.5589C6.84107 33.5117 6.85287 33.4622 6.85287 33.4079C6.85287 33.3537 6.84343 33.3041 6.8222 33.257C6.80097 33.2098 6.77502 33.1697 6.73964 33.1343C6.70425 33.0989 6.66415 33.0706 6.61697 33.0517C6.56979 33.0329 6.52025 33.0211 6.46599 33.0211C6.41174 33.0211 6.3622 33.0305 6.31502 33.0517C6.26784 33.073 6.22774 33.0989 6.19235 33.1343C6.15697 33.1697 6.12866 33.2098 6.10979 33.257C6.08855 33.3041 6.07912 33.3537 6.07912 33.4079C6.07912 33.4622 6.08855 33.5117 6.10979 33.5589C6.12866 33.6061 6.15697 33.6462 6.19235 33.6816Z" fill="white"/>
<path d="M10.4834 35.892C10.4834 35.6938 10.4645 35.5216 10.4267 35.373C10.389 35.2244 10.3395 35.0946 10.2758 34.9885C10.2121 34.8823 10.1389 34.7927 10.054 34.7219C9.9691 34.6511 9.88181 34.5945 9.78981 34.5544C9.69781 34.5119 9.60109 34.4836 9.50437 34.4671C9.40765 34.4506 9.31565 34.4435 9.22601 34.4435C9.0255 34.4435 8.83914 34.4789 8.66693 34.5473C8.49473 34.6157 8.34375 34.7125 8.21401 34.8351C8.08426 34.9578 7.98282 35.1017 7.9097 35.2715C7.83657 35.439 7.79882 35.623 7.79882 35.8212C7.79882 35.958 7.82477 36.0995 7.87431 36.2434C7.92385 36.3873 8.00641 36.5194 8.11729 36.6374C8.22816 36.7553 8.37206 36.8521 8.54898 36.9252C8.72591 37.0007 8.94057 37.0361 9.19299 37.0361C9.25196 37.0361 9.32273 37.0313 9.40765 37.0243C9.49258 37.0172 9.57278 37.0054 9.65063 36.9889C9.60817 37.0785 9.54448 37.1611 9.45719 37.2389C9.36991 37.3168 9.26612 37.3852 9.14581 37.4465C9.0255 37.5079 8.88868 37.5598 8.73534 37.6046C8.58201 37.6494 8.41924 37.6801 8.24467 37.6989H8.17154L8.24467 38.3429C8.57257 38.3099 8.87452 38.2557 9.14817 38.1778C9.42181 38.1 9.65771 37.9867 9.85586 37.8405C10.054 37.6919 10.2074 37.5031 10.3182 37.272C10.4291 37.0408 10.4834 36.7553 10.4834 36.4109V35.892ZM9.69781 36.326C9.67658 36.3354 9.64827 36.3449 9.61525 36.3543C9.58222 36.3614 9.54683 36.3685 9.50909 36.3755C9.47135 36.3826 9.4336 36.3873 9.3935 36.3897C9.3534 36.3944 9.31565 36.3968 9.28027 36.3968C9.15288 36.3968 9.04437 36.3803 8.95001 36.3472C8.85801 36.3142 8.78016 36.2694 8.72119 36.2128C8.66221 36.1562 8.61503 36.0854 8.58437 36.0052C8.5537 35.9226 8.53955 35.8353 8.53955 35.7386C8.53955 35.6419 8.55606 35.5499 8.58908 35.4673C8.62211 35.3848 8.66457 35.3164 8.71883 35.2574C8.77309 35.1984 8.83678 35.1536 8.90519 35.1206C8.9736 35.0875 9.04909 35.071 9.12694 35.071C9.19771 35.071 9.26612 35.0852 9.33453 35.1111C9.40294 35.1371 9.46427 35.1866 9.51853 35.2597C9.57278 35.3329 9.61525 35.4343 9.64827 35.5641C9.6813 35.6938 9.69781 35.8636 9.69781 36.0712V36.326Z" fill="white"/>
<path d="M13.3448 33.6816C13.3802 33.717 13.4203 33.7453 13.4675 33.7641C13.5147 33.7854 13.5642 33.7948 13.6185 33.7948C13.6727 33.7948 13.7222 33.7854 13.7694 33.7641C13.8166 33.7453 13.8567 33.717 13.8921 33.6816C13.9275 33.6462 13.9558 33.6061 13.9747 33.5589C13.9935 33.5117 14.0053 33.4622 14.0053 33.4079C14.0053 33.3537 13.9959 33.3041 13.9747 33.257C13.9534 33.2098 13.9275 33.1697 13.8921 33.1343C13.8567 33.0989 13.8166 33.0706 13.7694 33.0517C13.7222 33.0329 13.6727 33.0211 13.6185 33.0211C13.5642 33.0211 13.5147 33.0305 13.4675 33.0517C13.4203 33.073 13.3802 33.0989 13.3448 33.1343C13.3094 33.1697 13.2811 33.2098 13.2622 33.257C13.241 33.3041 13.2316 33.3537 13.2316 33.4079C13.2316 33.4622 13.241 33.5117 13.2622 33.5589C13.2811 33.6061 13.3094 33.6462 13.3448 33.6816Z" fill="white"/>
<path d="M14.253 33.6816C14.2884 33.717 14.3285 33.7453 14.3757 33.7641C14.4229 33.7854 14.4724 33.7948 14.5267 33.7948C14.5809 33.7948 14.6305 33.7854 14.6776 33.7641C14.7248 33.7453 14.7649 33.717 14.8003 33.6816C14.8357 33.6462 14.864 33.6061 14.8829 33.5589C14.9017 33.5117 14.9135 33.4622 14.9135 33.4079C14.9135 33.3537 14.9041 33.3041 14.8829 33.257C14.8616 33.2098 14.8357 33.1697 14.8003 33.1343C14.7649 33.0989 14.7248 33.0706 14.6776 33.0517C14.6305 33.0329 14.5809 33.0211 14.5267 33.0211C14.4724 33.0211 14.4229 33.0305 14.3757 33.0517C14.3285 33.073 14.2884 33.0989 14.253 33.1343C14.2176 33.1697 14.1893 33.2098 14.1705 33.257C14.1516 33.3041 14.1398 33.3537 14.1398 33.4079C14.1398 33.4622 14.1492 33.5117 14.1705 33.5589C14.1917 33.6061 14.2176 33.6462 14.253 33.6816Z" fill="white"/>
<path d="M17.1499 36.694C17.2631 36.7907 17.3976 36.8709 17.5556 36.9323C17.6995 36.9889 17.8788 37.0172 18.0864 37.0219C18.0864 37.0219 18.0911 37.0219 18.0935 37.0219C18.11 37.0219 18.1265 37.0219 18.143 37.0219H19.6575V32.679H18.8719V36.3614H18.1524C18.0109 36.3614 17.8764 36.3496 17.7467 36.3237C17.6169 36.2977 17.5014 36.2576 17.3952 36.201C17.407 36.1326 17.4141 36.0618 17.4141 35.9863C17.4141 35.8566 17.3952 35.7315 17.3575 35.6183C17.3197 35.5027 17.2607 35.3918 17.1829 35.281C17.105 35.1701 17.0083 35.0616 16.8904 34.9531C16.7724 34.8446 16.6332 34.7313 16.4752 34.611L17.3952 33.0211L16.822 32.6531L15.5151 34.8516C15.6991 34.9602 15.8619 35.0639 16.0081 35.163C16.1544 35.2621 16.2747 35.3565 16.3761 35.4508C16.4752 35.5428 16.553 35.6348 16.6049 35.7221C16.6568 35.8094 16.6828 35.8967 16.6828 35.9816C16.6828 36.0406 16.6733 36.0925 16.6568 36.1396C16.6403 36.1868 16.6073 36.2269 16.5625 36.26C16.5177 36.293 16.4563 36.3189 16.3785 36.3378C16.3006 36.3567 16.2015 36.3661 16.0812 36.3661H15.1565C15.0338 36.3661 14.9159 36.3567 14.8003 36.3354C14.6871 36.3166 14.5809 36.2859 14.4818 36.2458C14.4866 36.2104 14.4889 36.1774 14.4913 36.142C14.4936 36.1066 14.496 36.0712 14.496 36.0335V34.552H13.7105V35.9273C13.7105 36.0123 13.7034 36.083 13.6892 36.1396C13.6751 36.1963 13.6538 36.2411 13.6232 36.2741C13.5949 36.3071 13.5548 36.3307 13.5076 36.3449C13.4604 36.359 13.4038 36.3661 13.3377 36.3661H12.413V34.5497H11.6275V36.635C11.6275 36.7766 11.618 36.8992 11.5968 37.0054C11.5756 37.1116 11.5355 37.2036 11.4765 37.2814C11.4175 37.3592 11.3326 37.4229 11.2241 37.4772C11.1156 37.5291 10.974 37.5739 10.7971 37.6069L10.9009 38.2769C11.125 38.2415 11.3208 38.1943 11.4883 38.1306C11.6558 38.0669 11.802 37.9867 11.9223 37.8877C12.0426 37.7886 12.1394 37.6683 12.2149 37.5291C12.288 37.3876 12.3422 37.2201 12.3729 37.0266H13.609C13.76 37.0266 13.8874 37.0054 13.9935 36.9606C14.0997 36.9158 14.187 36.8568 14.2577 36.7789C14.3663 36.8544 14.4913 36.9134 14.6328 36.9582C14.7531 36.996 14.9017 37.0148 15.0669 37.0219C15.0881 37.0219 15.1117 37.0266 15.1376 37.0266C15.1424 37.0266 15.1447 37.0266 15.1494 37.0266H16.1567C16.395 37.0266 16.5955 36.9983 16.7559 36.9393C16.9163 36.8804 17.0508 36.8002 17.1546 36.6964L17.1499 36.694Z" fill="white"/>
<path d="M24.149 32.679H23.3634V36.3614H22.5637V33.7005H21.7782V36.3614H20.4241V37.0243H24.149V32.679Z" fill="white"/>
<path d="M21.6154 38.6331H22.7407V38.2675H22.5661C22.4411 38.2675 22.3491 38.2415 22.2901 38.1896C22.2311 38.1377 22.2005 38.0787 22.2005 38.0103C22.2005 37.9419 22.2217 37.8947 22.2618 37.8664C22.3019 37.8381 22.3538 37.8263 22.4198 37.8263C22.4552 37.8263 22.4977 37.8287 22.5472 37.8358C22.5968 37.8428 22.6416 37.8476 22.6723 37.8546L22.7336 37.4819C22.6628 37.4701 22.6015 37.463 22.5472 37.4583C22.493 37.456 22.4434 37.4536 22.3986 37.4536C22.2925 37.4536 22.2005 37.4678 22.1226 37.4937C22.0448 37.522 21.9811 37.5574 21.9315 37.6022C21.882 37.647 21.8443 37.6989 21.8207 37.7556C21.7971 37.8122 21.7853 37.8711 21.7853 37.9325C21.7853 37.9962 21.7994 38.0575 21.8254 38.1165C21.8537 38.1755 21.882 38.225 21.915 38.2651H21.6178V38.6307L21.6154 38.6331Z" fill="white"/>
<path d="M25.7861 32.6837H25.0006V37.0266H25.7861V32.6837Z" fill="white"/>
<path d="M30.0866 36.9063C30.155 36.9417 30.2399 36.97 30.339 36.9912C30.4381 37.0125 30.556 37.0219 30.6928 37.0219H32.5824V34.5426H31.7968V36.359H30.8296C30.7683 36.359 30.7164 36.352 30.681 36.3402C30.6433 36.3284 30.615 36.3071 30.5938 36.2788C30.5725 36.2505 30.5584 36.2104 30.5513 36.1632C30.5442 36.1161 30.5419 36.0547 30.5419 35.984V34.0307H29.761V34.3728C29.6431 34.4011 29.5157 34.4341 29.3765 34.4766C29.2373 34.5167 29.0981 34.5662 28.959 34.6228C28.8198 34.6794 28.683 34.7478 28.5532 34.8233C28.4235 34.9012 28.3079 34.9885 28.2065 35.0875C28.105 35.1866 28.0224 35.2975 27.9635 35.4225C27.9045 35.5475 27.8738 35.6844 27.8738 35.8377C27.8738 36.0123 27.9092 36.1609 27.98 36.2835C28.0508 36.4062 28.1428 36.5076 28.256 36.5879C28.3692 36.6657 28.4942 36.7247 28.6334 36.7624C28.7726 36.8002 28.9094 36.819 29.0439 36.819C29.1784 36.819 29.3081 36.8049 29.4308 36.7766C29.5534 36.7483 29.6808 36.7011 29.8106 36.6303C29.8365 36.6846 29.8719 36.7365 29.9167 36.7836C29.9615 36.8308 30.0182 36.8733 30.0866 36.9087V36.9063ZM29.7587 36.0146C29.6785 36.0665 29.5841 36.109 29.4779 36.142C29.3718 36.175 29.2609 36.1892 29.1453 36.1892C29.0816 36.1892 29.0203 36.1821 28.959 36.168C28.8953 36.1538 28.841 36.1302 28.7915 36.0972C28.7419 36.0642 28.7018 36.0193 28.6712 35.9651C28.6405 35.9108 28.624 35.8448 28.624 35.7646C28.624 35.6679 28.6499 35.5806 28.7042 35.5004C28.7585 35.4202 28.8339 35.3494 28.933 35.2857C29.0321 35.222 29.1524 35.1654 29.2916 35.1158C29.4308 35.0663 29.5865 35.0238 29.761 34.9885V36.0123L29.7587 36.0146Z" fill="white"/>
<path d="M28.9236 33.5235C28.959 33.5589 28.9991 33.5872 29.0463 33.6061C29.0934 33.625 29.143 33.6368 29.1972 33.6368C29.2515 33.6368 29.301 33.6273 29.3482 33.6061C29.3954 33.5872 29.4355 33.5589 29.4709 33.5235C29.5063 33.4881 29.5346 33.448 29.5534 33.4009C29.5747 33.3537 29.5841 33.3041 29.5841 33.2499C29.5841 33.1956 29.5747 33.1461 29.5534 33.0989C29.5322 33.0517 29.5063 33.0116 29.4709 32.9762C29.4355 32.9409 29.3954 32.9125 29.3482 32.8937C29.301 32.8724 29.2515 32.863 29.1972 32.863C29.143 32.863 29.0934 32.8724 29.0463 32.8937C28.9991 32.9149 28.959 32.9409 28.9236 32.9762C28.8882 33.0116 28.8599 33.0517 28.841 33.0989C28.8198 33.1461 28.8104 33.1956 28.8104 33.2499C28.8104 33.3041 28.8198 33.3537 28.841 33.4009C28.8622 33.448 28.8882 33.4881 28.9236 33.5235Z" fill="white"/>
<path d="M29.8294 33.5235C29.8648 33.5589 29.9049 33.5872 29.9521 33.6061C29.9993 33.625 30.0488 33.6368 30.1031 33.6368C30.1573 33.6368 30.2069 33.6273 30.2541 33.6061C30.3012 33.5872 30.3413 33.5589 30.3767 33.5235C30.4121 33.4881 30.4404 33.448 30.4593 33.4009C30.4805 33.3537 30.49 33.3041 30.49 33.2499C30.49 33.1956 30.4805 33.1461 30.4593 33.0989C30.4381 33.0517 30.4121 33.0116 30.3767 32.9762C30.3413 32.9409 30.3012 32.9125 30.2541 32.8937C30.2069 32.8724 30.1573 32.863 30.1031 32.863C30.0488 32.863 29.9993 32.8724 29.9521 32.8937C29.9049 32.9149 29.8648 32.9409 29.8294 32.9762C29.7941 33.0116 29.7657 33.0517 29.7469 33.0989C29.7256 33.1461 29.7162 33.1956 29.7162 33.2499C29.7162 33.3041 29.7256 33.3537 29.7469 33.4009C29.7657 33.448 29.7941 33.4881 29.8294 33.5235Z" fill="white"/>
<path d="M31.7685 37.5338C31.7213 37.5126 31.6718 37.5031 31.6176 37.5031C31.5633 37.5031 31.5138 37.5126 31.4666 37.5338C31.4194 37.5527 31.3793 37.581 31.3439 37.6164C31.3085 37.6518 31.2802 37.6919 31.2613 37.739C31.2425 37.7862 31.2307 37.8358 31.2307 37.89C31.2307 37.9443 31.2401 37.9938 31.2613 38.041C31.2826 38.0882 31.3085 38.1283 31.3439 38.1637C31.3793 38.199 31.4194 38.2274 31.4666 38.2462C31.5138 38.2651 31.5633 38.2769 31.6176 38.2769C31.6718 38.2769 31.7213 38.2675 31.7685 38.2462C31.8157 38.225 31.8558 38.199 31.8912 38.1637C31.9266 38.1283 31.9549 38.0882 31.9738 38.041C31.995 37.9938 32.0044 37.9443 32.0044 37.89C32.0044 37.8358 31.995 37.7862 31.9738 37.739C31.9525 37.6919 31.9266 37.6518 31.8912 37.6164C31.8558 37.581 31.8157 37.5527 31.7685 37.5338Z" fill="white"/>
<path d="M32.882 38.0434C32.9008 37.9962 32.9126 37.9466 32.9126 37.8924C32.9126 37.8381 32.9032 37.7886 32.882 37.7414C32.8607 37.6942 32.8348 37.6541 32.7994 37.6187C32.764 37.5834 32.7239 37.555 32.6767 37.5362C32.6296 37.5149 32.58 37.5055 32.5258 37.5055C32.4715 37.5055 32.422 37.5149 32.3748 37.5362C32.3276 37.555 32.2875 37.5834 32.2521 37.6187C32.2167 37.6541 32.1884 37.6942 32.1696 37.7414C32.1483 37.7886 32.1389 37.8381 32.1389 37.8924C32.1389 37.9466 32.1483 37.9962 32.1696 38.0434C32.1884 38.0905 32.2167 38.1306 32.2521 38.166C32.2875 38.2014 32.3276 38.2297 32.3748 38.2486C32.422 38.2675 32.4715 38.2793 32.5258 38.2793C32.58 38.2793 32.6296 38.2698 32.6767 38.2486C32.7239 38.2274 32.764 38.2014 32.7994 38.166C32.8348 38.1306 32.8631 38.0905 32.882 38.0434Z" fill="white"/>
<path d="M34.873 36.937C35.0452 36.878 35.1843 36.8002 35.2929 36.6987C35.4014 36.5973 35.4792 36.4841 35.5264 36.352C35.5736 36.2199 35.5972 36.0807 35.5972 35.9321C35.5972 35.6561 35.4934 35.3635 35.2881 35.0569C35.0829 34.7502 34.7833 34.4341 34.3894 34.1086L33.8209 34.6653C33.9435 34.7644 34.0662 34.8705 34.1841 34.9837C34.3044 35.097 34.413 35.2126 34.5073 35.3282C34.6017 35.4437 34.6795 35.5593 34.7385 35.6726C34.7975 35.7858 34.8258 35.8896 34.8258 35.9863C34.8258 36.0406 34.8187 36.0901 34.8046 36.1373C34.7904 36.1845 34.7621 36.2246 34.722 36.2576C34.6819 36.2906 34.6229 36.3166 34.5474 36.3354C34.4719 36.3543 34.3729 36.3638 34.2525 36.3638H33.0919V37.0266H34.2384C34.4861 37.0266 34.696 36.9983 34.8682 36.9393L34.873 36.937Z" fill="white"/>
<path d="M50.4848 32.679H49.6992V36.3614H48.9774C48.8547 36.3614 48.7367 36.352 48.6212 36.3307C48.5079 36.3119 48.4018 36.2812 48.3027 36.2411C48.3074 36.2057 48.3098 36.1727 48.3121 36.1373C48.3145 36.1019 48.3168 36.0665 48.3168 36.0288V34.5473H47.5313V35.9226C47.5313 36.0075 47.5242 36.0783 47.5101 36.1349C47.4959 36.1915 47.4747 36.2364 47.444 36.2694C47.4157 36.3024 47.3756 36.326 47.3284 36.3402C47.2812 36.3543 47.2246 36.3614 47.1562 36.3614C47.0548 36.3614 46.951 36.3449 46.8448 36.3142C46.7387 36.2835 46.6302 36.2364 46.5193 36.1774C46.5193 36.1538 46.5217 36.1279 46.524 36.1043C46.524 36.0783 46.524 36.0547 46.524 36.0311V34.8752H45.7385V35.925C45.7385 36.0099 45.7314 36.0807 45.7172 36.1373C45.7031 36.1939 45.6819 36.2387 45.6512 36.2718C45.6229 36.3048 45.5828 36.3284 45.5356 36.3425C45.4884 36.3567 45.4318 36.3638 45.3634 36.3638C45.2596 36.3638 45.1534 36.3472 45.0449 36.3142C44.9364 36.2812 44.8255 36.234 44.7147 36.1727C44.7194 36.1491 44.7217 36.1255 44.7217 36.1019V35.1489H43.9362V35.925C43.9362 36.0099 43.9291 36.0807 43.915 36.1373C43.9008 36.1939 43.8796 36.2387 43.8489 36.2718C43.8206 36.3048 43.7805 36.3284 43.7333 36.3425C43.6861 36.3567 43.6295 36.3638 43.5635 36.3638H42.6576C42.5821 36.3638 42.5019 36.3614 42.4241 36.3543C42.3439 36.3472 42.2684 36.3402 42.1953 36.3307C42.1221 36.3213 42.0537 36.3095 41.9877 36.2977C41.924 36.2859 41.8674 36.2718 41.8178 36.2576C41.957 36.1137 42.0702 35.9816 42.1575 35.8566C42.2448 35.7315 42.3132 35.6183 42.3651 35.5145C42.4147 35.4107 42.45 35.3187 42.4689 35.2362C42.4878 35.1536 42.4972 35.0828 42.4972 35.0238C42.4972 34.9083 42.4642 34.8092 42.3981 34.7266C42.3321 34.644 42.2495 34.578 42.1457 34.5261C42.0419 34.4742 41.9287 34.4365 41.8037 34.4129C41.6786 34.3893 41.5536 34.3775 41.431 34.3775C41.28 34.3775 41.1361 34.3893 40.9969 34.4105C40.8577 34.4317 40.7303 34.46 40.6124 34.4931C40.4944 34.5261 40.3883 34.5615 40.2939 34.6016C40.1996 34.6417 40.1194 34.6771 40.0509 34.7125C40.0203 34.7313 39.992 34.762 39.9613 34.8068C39.9306 34.8516 39.9047 34.9035 39.8811 34.9602C39.8575 35.0168 39.8363 35.0734 39.815 35.13C39.7962 35.1866 39.782 35.2385 39.7749 35.2786C39.7915 35.2975 39.8174 35.3282 39.8504 35.373C39.8858 35.4178 39.9283 35.4768 39.9825 35.5523C40.0179 35.5994 40.058 35.6513 40.1052 35.7127C40.1524 35.774 40.2043 35.8353 40.2585 35.899C40.3128 35.9627 40.3718 36.0264 40.4307 36.0901C40.4897 36.1538 40.5487 36.2104 40.6077 36.26C40.5369 36.2859 40.4355 36.3095 40.3034 36.3284C40.1713 36.3496 40.0226 36.359 39.8599 36.359H38.9021V35.8896C38.9021 35.6914 38.8832 35.5192 38.8455 35.3706C38.8078 35.222 38.7582 35.0923 38.6945 34.9861C38.6308 34.8799 38.5577 34.7903 38.4751 34.7195C38.3926 34.6488 38.3053 34.5922 38.2109 34.552C38.1189 34.5096 38.0246 34.4813 37.9279 34.4648C37.8311 34.4482 37.7391 34.4412 37.6495 34.4412C37.4325 34.4412 37.2343 34.4789 37.0597 34.552C36.8852 34.6275 36.7342 34.7266 36.6115 34.854C36.4889 34.9814 36.3922 35.1253 36.3237 35.2928C36.2553 35.4579 36.2223 35.6348 36.2223 35.8165C36.2223 35.9533 36.2482 36.0925 36.3001 36.2364C36.352 36.3803 36.4346 36.51 36.5502 36.6256C36.6658 36.7435 36.8168 36.8379 37.0055 36.911C37.1918 36.9842 37.423 37.0219 37.6943 37.0219H38.06C38.0104 37.1068 37.9396 37.187 37.85 37.2625C37.7604 37.338 37.6542 37.4064 37.5292 37.4678C37.4042 37.5291 37.265 37.5786 37.1069 37.6187C36.9489 37.6588 36.779 37.6848 36.5927 37.6966L36.6658 38.3429C36.9229 38.317 37.1683 38.2698 37.4018 38.2014C37.6353 38.133 37.8453 38.0434 38.0364 37.9325C38.2274 37.8216 38.3926 37.6895 38.5318 37.5385C38.6709 37.3876 38.7771 37.2153 38.8502 37.0219H39.8174C39.9495 37.0219 40.0793 37.0125 40.2043 36.9936C40.3293 36.9747 40.4473 36.9511 40.5605 36.9205C40.6737 36.8898 40.7799 36.8544 40.879 36.8167C40.978 36.7766 41.07 36.7365 41.1526 36.694C41.2139 36.7247 41.2871 36.7577 41.3791 36.7978C41.4687 36.8355 41.5701 36.8709 41.6857 36.9063C41.8013 36.9393 41.9263 36.9677 42.0632 36.9889C42.2 37.0101 42.3439 37.0219 42.4949 37.0219H43.83C44.0023 37.0219 44.1438 36.9936 44.257 36.937C44.3703 36.8804 44.4623 36.8049 44.533 36.7105C44.651 36.8025 44.7925 36.878 44.9553 36.9346C45.1181 36.9912 45.2997 37.0219 45.5002 37.0219H45.6323C45.8045 37.0219 45.9461 36.9936 46.0569 36.9393C46.1678 36.8851 46.2598 36.8096 46.3306 36.7176C46.4485 36.8072 46.5877 36.8827 46.7481 36.9393C46.9085 36.996 47.0878 37.0243 47.2883 37.0243H47.4204C47.5714 37.0243 47.6988 37.003 47.8049 36.9582C47.9111 36.9134 47.9984 36.8544 48.0692 36.7766C48.1777 36.8521 48.3027 36.911 48.4442 36.9559C48.5645 36.9936 48.7132 37.0125 48.8783 37.0196C48.8995 37.0196 48.9231 37.0243 48.9491 37.0243C48.9538 37.0243 48.9561 37.0243 48.9608 37.0243H50.4777V32.6814L50.4848 32.679ZM38.126 36.3614H37.6967C37.4419 36.3614 37.2579 36.3048 37.1399 36.1939C37.022 36.083 36.963 35.9297 36.963 35.7363C36.963 35.6372 36.9795 35.5475 37.0126 35.465C37.0456 35.3824 37.0904 35.314 37.1447 35.255C37.1989 35.1961 37.2626 35.1512 37.3334 35.1182C37.4042 35.0852 37.4796 35.0687 37.5551 35.0687C37.6259 35.0687 37.6943 35.0828 37.7627 35.1088C37.8311 35.1347 37.8925 35.1843 37.9467 35.2574C38.001 35.3305 38.0434 35.4319 38.0765 35.5617C38.1095 35.6914 38.126 35.8613 38.126 36.0689V36.3614ZM41.7258 35.4202C41.707 35.4744 41.6763 35.531 41.6338 35.5947C41.5914 35.6584 41.5371 35.7245 41.4687 35.7952C41.4003 35.866 41.3177 35.9368 41.2186 36.0075C41.1526 35.958 41.0818 35.8943 41.0087 35.8165C40.9356 35.741 40.8648 35.6608 40.7964 35.5782C40.728 35.4956 40.6643 35.4178 40.61 35.34C40.5558 35.2621 40.5109 35.1984 40.4803 35.1442C40.5369 35.1182 40.5982 35.0946 40.6619 35.071C40.7256 35.0498 40.7917 35.0309 40.8577 35.0144C40.9238 34.9979 40.9875 34.9861 41.0488 34.979C41.1101 34.9719 41.1644 34.9672 41.2139 34.9672C41.2941 34.9672 41.3673 34.9767 41.4357 34.9932C41.5017 35.0097 41.5607 35.0333 41.6079 35.0616C41.6574 35.0899 41.6928 35.1229 41.7188 35.1607C41.7447 35.1984 41.7589 35.2409 41.7589 35.2857C41.7589 35.3211 41.7494 35.3659 41.7305 35.4202H41.7258Z" fill="white"/>
<path d="M52.0558 32.6837H51.2703V37.0266H52.0558V32.6837Z" fill="white"/>
<path d="M55.1933 33.5235C55.2287 33.5589 55.2688 33.5872 55.316 33.6061C55.3632 33.625 55.4127 33.6368 55.4669 33.6368C55.5212 33.6368 55.5707 33.6273 55.6179 33.6061C55.6651 33.5849 55.7052 33.5589 55.7406 33.5235C55.776 33.4881 55.8043 33.448 55.8232 33.4009C55.8444 33.3537 55.8538 33.3041 55.8538 33.2499C55.8538 33.1956 55.8444 33.1461 55.8232 33.0989C55.8043 33.0517 55.776 33.0116 55.7406 32.9762C55.7052 32.9409 55.6651 32.9125 55.6179 32.8937C55.5707 32.8748 55.5212 32.863 55.4669 32.863C55.4127 32.863 55.3632 32.8724 55.316 32.8937C55.2688 32.9149 55.2287 32.9409 55.1933 32.9762C55.1579 33.0116 55.1296 33.0517 55.1107 33.0989C55.0919 33.1461 55.0801 33.1956 55.0801 33.2499C55.0801 33.3041 55.0895 33.3537 55.1107 33.4009C55.132 33.448 55.1579 33.4881 55.1933 33.5235Z" fill="white"/>
<path d="M54.5233 36.5879C54.6366 36.6657 54.7616 36.7247 54.9008 36.7624C55.04 36.8002 55.1768 36.819 55.3113 36.819C55.4457 36.819 55.5755 36.8049 55.6981 36.7766C55.8208 36.7483 55.9482 36.7011 56.0803 36.6303C56.1062 36.6846 56.1416 36.7365 56.1864 36.7836C56.2313 36.8308 56.2879 36.8733 56.3563 36.9087C56.4247 36.9441 56.5096 36.9724 56.6087 36.9936C56.7078 37.0148 56.8257 37.0243 56.9625 37.0243H57.6891C57.8212 37.0243 57.951 37.0148 58.076 36.996C58.201 36.9771 58.319 36.9535 58.4322 36.9228C58.5454 36.8922 58.6516 36.8568 58.7507 36.819C58.8497 36.7789 58.9417 36.7388 59.0243 36.6964C59.0856 36.727 59.1588 36.7601 59.2508 36.8002C59.3404 36.8379 59.4418 36.8733 59.5574 36.9087C59.673 36.9417 59.7981 36.97 59.9349 36.9912C60.0717 37.0125 60.2156 37.0243 60.3666 37.0243H61.046C61.388 37.0243 61.6475 36.8992 61.8268 36.6468C61.881 36.6964 61.9424 36.7435 62.0108 36.7931C62.0792 36.8426 62.157 36.8874 62.2467 36.9252C62.3363 36.9653 62.4378 36.996 62.5486 37.0196C62.6595 37.0431 62.7869 37.0549 62.9308 37.0549C63.1313 37.0549 63.3059 37.0219 63.4616 36.9535C63.6149 36.8851 63.7446 36.7954 63.8508 36.6822C63.957 36.569 64.0348 36.4392 64.0891 36.2953C64.1433 36.1491 64.1716 35.9981 64.1716 35.8424C64.1716 35.7433 64.1598 35.6419 64.1362 35.5357C64.1126 35.4296 64.0773 35.3282 64.0301 35.2267C63.9829 35.1276 63.9239 35.0333 63.8508 34.9436C63.78 34.854 63.6951 34.7762 63.596 34.7101C63.4993 34.644 63.3884 34.5898 63.2658 34.552C63.1431 34.5119 63.0063 34.4931 62.8577 34.4931C62.7539 34.4931 62.6359 34.5119 62.5062 34.5497C62.3764 34.5874 62.2443 34.6606 62.1075 34.7714C61.9707 34.8823 61.8409 35.038 61.7136 35.2409C61.5862 35.4437 61.4729 35.708 61.3762 36.0382C61.3408 36.1491 61.2866 36.2316 61.2134 36.2835C61.138 36.3354 61.053 36.3614 60.954 36.3614H60.527C60.4491 36.3614 60.3713 36.359 60.2934 36.352C60.2132 36.3449 60.1377 36.3378 60.0646 36.3284C59.9915 36.3189 59.9231 36.3071 59.857 36.2953C59.7933 36.2835 59.7367 36.2694 59.6872 36.2552C59.8264 36.1113 59.9396 35.9792 60.0269 35.8542C60.1142 35.7292 60.1826 35.616 60.2345 35.5122C60.284 35.4084 60.3194 35.3164 60.3383 35.2338C60.3571 35.1512 60.3666 35.0805 60.3666 35.0215C60.3666 34.9059 60.3335 34.8068 60.2675 34.7243C60.2014 34.6417 60.1189 34.5756 60.0151 34.5237C59.9113 34.4718 59.7981 34.4341 59.6707 34.4105C59.5456 34.3869 59.4206 34.3751 59.298 34.3751C59.147 34.3751 59.0031 34.3869 58.8639 34.4081C58.7247 34.4294 58.5973 34.4577 58.4794 34.4907C58.3614 34.5237 58.2553 34.5591 58.1609 34.5992C58.0666 34.6393 57.9864 34.6747 57.9179 34.7101C57.8873 34.729 57.859 34.7596 57.8283 34.8045C57.7976 34.8493 57.7717 34.9012 57.7481 34.9578C57.7245 35.0144 57.7033 35.071 57.682 35.1276C57.6608 35.1843 57.649 35.2362 57.6419 35.2763C57.6585 35.2951 57.682 35.3258 57.7174 35.3706C57.7528 35.4154 57.7953 35.4744 57.8495 35.5499C57.8849 35.5971 57.925 35.649 57.9722 35.7103C58.0194 35.7716 58.0713 35.833 58.1255 35.8967C58.1798 35.9604 58.2388 36.0241 58.2977 36.0877C58.3567 36.1514 58.4157 36.2081 58.4747 36.2576C58.4039 36.2835 58.3025 36.3071 58.1704 36.326C58.0382 36.3472 57.8896 36.3567 57.7269 36.3567H57.097C57.0357 36.3567 56.9838 36.3496 56.9484 36.3378C56.9106 36.326 56.8823 36.3048 56.8611 36.2765C56.8399 36.2482 56.8257 36.2081 56.8186 36.1609C56.8116 36.1137 56.8092 36.0524 56.8092 35.9816V34.0284H56.0284V34.3704C55.9104 34.3987 55.7831 34.4317 55.6439 34.4742C55.5047 34.5167 55.3655 34.5638 55.2263 34.6205C55.0872 34.6771 54.9503 34.7455 54.8206 34.821C54.6908 34.8988 54.5752 34.9861 54.4738 35.0852C54.3724 35.1843 54.2898 35.2951 54.2308 35.4202C54.1695 35.5452 54.1412 35.682 54.1412 35.8353C54.1412 36.0099 54.1766 36.1585 54.2497 36.2812C54.3205 36.4062 54.4125 36.5053 54.5257 36.5855L54.5233 36.5879ZM62.1641 35.7882C62.2113 35.6631 62.2679 35.5523 62.3316 35.4555C62.3953 35.3588 62.4684 35.281 62.5486 35.222C62.6288 35.163 62.7185 35.1324 62.8152 35.1324C62.9119 35.1324 63.0063 35.1559 63.0818 35.2031C63.1596 35.2503 63.2233 35.3093 63.2776 35.3801C63.3295 35.4508 63.3696 35.5263 63.3955 35.6089C63.4215 35.6914 63.4356 35.7669 63.4356 35.8377C63.4356 35.9415 63.4215 36.0311 63.3908 36.1043C63.3601 36.1774 63.3177 36.2364 63.2587 36.2812C63.2021 36.326 63.1313 36.359 63.0511 36.3803C62.9709 36.4015 62.8812 36.4109 62.7822 36.4109C62.7161 36.4109 62.6454 36.4039 62.5722 36.3873C62.4991 36.3732 62.4283 36.352 62.3599 36.3307C62.2915 36.3071 62.2302 36.2812 62.1759 36.2529C62.1217 36.2246 62.0816 36.1986 62.0556 36.1703C62.0816 36.0382 62.1193 35.9108 62.1665 35.7858L62.1641 35.7882ZM58.4723 35.3423C58.4157 35.2645 58.3732 35.2008 58.3426 35.1465C58.3992 35.1206 58.4605 35.097 58.5242 35.0734C58.5879 35.0522 58.6539 35.0333 58.72 35.0168C58.786 35.0003 58.8497 34.9885 58.9111 34.9814C58.9724 34.9743 59.0267 34.9696 59.0762 34.9696C59.1564 34.9696 59.2295 34.979 59.298 34.9955C59.364 35.0121 59.423 35.0356 59.4702 35.0639C59.5197 35.0923 59.5551 35.1253 59.581 35.163C59.607 35.2008 59.6211 35.2432 59.6211 35.2881C59.6211 35.3234 59.6117 35.3683 59.5928 35.4225C59.574 35.4768 59.5433 35.5334 59.5008 35.5971C59.4584 35.6608 59.4041 35.7268 59.3357 35.7976C59.2673 35.8684 59.1847 35.9391 59.0856 36.0099C59.0196 35.9604 58.9488 35.8967 58.8757 35.8188C58.8026 35.7433 58.7318 35.6631 58.6634 35.5806C58.595 35.498 58.5313 35.4202 58.477 35.3423H58.4723ZM54.9716 35.5027C55.0258 35.4225 55.1013 35.3517 55.2004 35.2881C55.2995 35.2244 55.4198 35.1677 55.5589 35.1182C55.6981 35.0687 55.8538 35.0262 56.0284 34.9908V36.0146C55.9482 36.0665 55.8538 36.109 55.7477 36.142C55.6415 36.175 55.5306 36.1892 55.4151 36.1892C55.3514 36.1892 55.29 36.1821 55.2287 36.168C55.1674 36.1538 55.1107 36.1302 55.0612 36.0972C55.0117 36.0642 54.9716 36.0193 54.9409 35.9651C54.9102 35.9108 54.8937 35.8448 54.8937 35.7646C54.8937 35.6679 54.9197 35.5806 54.9739 35.5004L54.9716 35.5027Z" fill="white"/>
<path d="M56.0992 33.5235C56.1345 33.5589 56.1746 33.5872 56.2218 33.6061C56.269 33.625 56.3185 33.6368 56.3728 33.6368C56.4271 33.6368 56.4766 33.6273 56.5238 33.6061C56.571 33.5872 56.6111 33.5589 56.6464 33.5235C56.6818 33.4881 56.7101 33.448 56.729 33.4009C56.7479 33.3537 56.7597 33.3041 56.7597 33.2499C56.7597 33.1956 56.7502 33.1461 56.729 33.0989C56.7078 33.0517 56.6818 33.0116 56.6464 32.9762C56.6111 32.9409 56.571 32.9125 56.5238 32.8937C56.4766 32.8724 56.4271 32.863 56.3728 32.863C56.3185 32.863 56.269 32.8724 56.2218 32.8937C56.1746 32.9149 56.1345 32.9409 56.0992 32.9762C56.0638 33.0116 56.0355 33.0517 56.0166 33.0989C55.9954 33.1461 55.9859 33.1956 55.9859 33.2499C55.9859 33.3041 55.9954 33.3537 56.0166 33.4009C56.0355 33.448 56.0638 33.4881 56.0992 33.5235Z" fill="white"/>
<path d="M65.0586 36.7483C65.1364 36.8356 65.2355 36.904 65.3558 36.9511C65.4761 37.0007 65.62 37.0243 65.7899 37.0243H70.7438V32.6814H69.9582V36.3638H68.9792C68.9297 36.3638 68.8896 36.3378 68.8566 36.2859C68.8235 36.234 68.7952 36.1632 68.7693 36.076C68.7457 35.9887 68.7245 35.8872 68.7032 35.774C68.682 35.6608 68.6655 35.5405 68.6466 35.4154C68.623 35.2645 68.5806 35.1253 68.5216 34.9979C68.4626 34.8705 68.3848 34.762 68.2881 34.67C68.1913 34.578 68.0757 34.5072 67.9413 34.4553C67.8068 34.4034 67.6511 34.3775 67.4766 34.3775C67.302 34.3775 67.1392 34.394 67 34.4247C66.8585 34.4553 66.717 34.4931 66.5778 34.5355V35.1583C66.6391 35.1324 66.7028 35.1088 66.7736 35.0899C66.8444 35.0687 66.9128 35.0545 66.9812 35.0404C67.0496 35.0286 67.1133 35.0191 67.1723 35.0121C67.2336 35.005 67.2831 35.0026 67.3256 35.0026C67.4506 35.0026 67.5521 35.0309 67.6275 35.0875C67.703 35.1442 67.7644 35.2173 67.8115 35.3069C67.8587 35.3966 67.8917 35.498 67.9153 35.6112C67.9389 35.7245 67.9578 35.8377 67.9743 35.9509C67.9861 36.0264 68.005 36.1019 68.0286 36.175C68.0522 36.2482 68.0781 36.3119 68.1041 36.3661H65.9786C65.9173 36.3661 65.8654 36.359 65.8206 36.3425C65.7757 36.3284 65.738 36.3001 65.7097 36.2623C65.6814 36.2246 65.6578 36.1727 65.6436 36.1066C65.6295 36.0406 65.62 35.958 65.62 35.8566V32.6861H64.8345V36.0241C64.8345 36.1727 64.8534 36.3095 64.8887 36.4345C64.9241 36.5595 64.9831 36.6633 65.0586 36.753V36.7483Z" fill="white"/>
<path d="M67.3869 38.2486C67.4341 38.2675 67.4836 38.2793 67.5379 38.2793C67.5922 38.2793 67.6417 38.2698 67.6889 38.2486C67.7361 38.2274 67.7762 38.2014 67.8115 38.166C67.8469 38.1306 67.8752 38.0905 67.8941 38.0434C67.913 37.9962 67.9248 37.9466 67.9248 37.8924C67.9248 37.8381 67.9153 37.7886 67.8941 37.7414C67.8729 37.6942 67.8469 37.6541 67.8115 37.6187C67.7762 37.5834 67.7361 37.555 67.6889 37.5362C67.6417 37.5149 67.5922 37.5055 67.5379 37.5055C67.4836 37.5055 67.4341 37.5149 67.3869 37.5362C67.3397 37.555 67.2996 37.5834 67.2643 37.6187C67.2289 37.6541 67.2006 37.6942 67.1817 37.7414C67.1605 37.7886 67.151 37.8381 67.151 37.8924C67.151 37.9466 67.1605 37.9962 67.1817 38.0434C67.2006 38.0905 67.2289 38.1306 67.2643 38.166C67.2996 38.2014 67.3397 38.2297 67.3869 38.2486Z" fill="white"/>
<path d="M72.3149 32.6837H71.5293V37.0266H72.3149V32.6837Z" fill="white"/>
<path d="M52.7211 48.4725C52.8485 48.338 52.9711 48.1988 53.0867 48.0573C53.1386 47.9936 53.1858 47.9252 53.233 47.852C53.2802 47.7789 53.3203 47.7034 53.3557 47.6256C53.391 47.5477 53.417 47.4675 53.4382 47.385C53.4594 47.3024 53.4689 47.2198 53.4689 47.1373C53.4689 46.9839 53.4477 46.8518 53.4028 46.741C53.358 46.6301 53.2943 46.5381 53.2118 46.465C53.1292 46.3918 53.0278 46.3376 52.9122 46.3022C52.7966 46.2668 52.6645 46.2479 52.5182 46.2479C52.3602 46.2479 52.2068 46.2668 52.0535 46.3022C51.9025 46.3399 51.7563 46.3918 51.6147 46.465L51.6619 46.9721C51.7704 46.9037 51.8813 46.8447 51.9969 46.7976C52.1125 46.7504 52.2351 46.7268 52.3649 46.7268C52.4309 46.7268 52.4923 46.7339 52.5512 46.7504C52.6102 46.7669 52.6621 46.7905 52.7093 46.8235C52.7565 46.8565 52.7919 46.899 52.8178 46.9509C52.8438 47.0028 52.8603 47.0641 52.8603 47.1373C52.8603 47.2269 52.8367 47.3213 52.7895 47.4251C52.7423 47.5265 52.681 47.6326 52.6031 47.7388C52.5253 47.845 52.4404 47.9511 52.3436 48.0549C52.2469 48.1587 52.1526 48.2601 52.0535 48.3569C51.9568 48.4536 51.8624 48.5409 51.7728 48.6234C51.6831 48.706 51.6053 48.7744 51.5439 48.8334V49.3429H53.5656V48.864H52.3248C52.4616 48.7367 52.5937 48.6069 52.7211 48.4725Z" fill="white"/>
<path d="M55.9812 47.1019C55.9529 46.9839 55.9128 46.8754 55.8633 46.7716C55.8137 46.6678 55.7477 46.5782 55.6698 46.5003C55.592 46.4225 55.4976 46.3612 55.3867 46.3163C55.2759 46.2715 55.1461 46.2503 54.9975 46.2503C54.8489 46.2503 54.7286 46.2739 54.6224 46.3187C54.5163 46.3635 54.4219 46.4272 54.3441 46.5051C54.2662 46.5829 54.2002 46.6749 54.1483 46.7811C54.0964 46.8848 54.0563 46.9981 54.0256 47.1137C53.9949 47.2293 53.9737 47.3496 53.9619 47.4722C53.9501 47.5949 53.943 47.7129 53.943 47.8284C53.943 47.944 53.9478 48.0667 53.9596 48.1894C53.9713 48.312 53.9902 48.4324 54.0209 48.5479C54.0492 48.6635 54.0893 48.772 54.1388 48.8758C54.1884 48.9796 54.2544 49.0693 54.3323 49.1448C54.4101 49.2203 54.5045 49.2816 54.613 49.3264C54.7215 49.3712 54.8489 49.3925 54.9951 49.3925C55.1414 49.3925 55.2688 49.3712 55.3797 49.3264C55.4905 49.2816 55.5849 49.2203 55.6627 49.1448C55.7406 49.0669 55.8066 48.9796 55.8585 48.8758C55.9104 48.7744 55.9505 48.6635 55.9788 48.5479C56.0095 48.4324 56.0284 48.312 56.0425 48.1894C56.0543 48.0667 56.0614 47.9464 56.0614 47.8284C56.0614 47.7105 56.0567 47.5878 56.0449 47.4628C56.0331 47.3378 56.0142 47.2175 55.9836 47.0995L55.9812 47.1019ZM55.4481 48.1611C55.4481 48.22 55.4434 48.2814 55.4339 48.3451C55.4245 48.4088 55.4127 48.4677 55.3985 48.5267C55.3867 48.581 55.3702 48.6329 55.349 48.6824C55.3278 48.7319 55.3018 48.7768 55.2712 48.8145C55.2405 48.8522 55.2027 48.8829 55.1556 48.9065C55.1107 48.9301 55.0565 48.9419 54.9975 48.9419C54.922 48.9419 54.8607 48.923 54.8088 48.8806C54.7569 48.8405 54.7168 48.7862 54.6838 48.7201C54.6507 48.6541 54.6271 48.581 54.6083 48.4984C54.5894 48.4158 54.5776 48.3356 54.5705 48.2507C54.5635 48.1681 54.5587 48.0879 54.5564 48.0148C54.5564 47.9393 54.5564 47.878 54.5564 47.8261C54.5564 47.7742 54.5564 47.7105 54.5564 47.635C54.5564 47.5595 54.5611 47.4793 54.5682 47.3968C54.5752 47.3142 54.5894 47.2293 54.6059 47.1467C54.6224 47.0641 54.6484 46.9886 54.6814 46.9226C54.7144 46.8565 54.7569 46.8023 54.8088 46.7598C54.8607 46.7197 54.9244 46.6985 54.9999 46.6985C55.073 46.6985 55.132 46.715 55.1839 46.748C55.2334 46.7811 55.2759 46.8235 55.3089 46.8778C55.3419 46.932 55.3679 46.9957 55.3867 47.0665C55.4056 47.1373 55.4198 47.2104 55.4292 47.2859C55.4386 47.3614 55.4457 47.4345 55.4481 47.51C55.4504 47.5855 55.4504 47.6515 55.4504 47.7129V48.1587L55.4481 48.1611Z" fill="white"/>
<path d="M56.5568 47.0146L56.8611 47.4133L57.3754 46.9934V49.3429H57.9864V46.2998H57.4461L56.5568 47.0146Z" fill="white"/>
<path d="M58.9795 47.0146L59.2838 47.4133L59.7981 46.9934V49.3429H60.409V46.2998H59.8688L58.9795 47.0146Z" fill="white"/>
<path d="M62.3552 47.9299H61.2111V48.4111H62.3552V47.9299Z" fill="white"/>
<path d="M62.8529 47.0146L63.1572 47.4133L63.6715 46.9934V49.3429H64.2825V46.2998H63.7423L62.8529 47.0146Z" fill="white"/>
<path d="M66.8963 46.2998H66.1367L64.9996 48.2177V48.7084H66.3089V49.3406H66.8939V48.7084H67.2808V48.2554H66.8939V46.2975L66.8963 46.2998ZM66.3112 48.2578H65.5493L66.3018 46.9391H66.3112V48.2578Z" fill="white"/>
<path d="M69.3685 48.0054C69.3213 47.9417 69.26 47.8898 69.1868 47.8497C69.1137 47.8096 69.0288 47.7813 68.9297 47.7671V47.7577C69.017 47.727 69.0948 47.6916 69.1632 47.6468C69.2317 47.602 69.293 47.5501 69.3425 47.4911C69.3921 47.4321 69.4298 47.3637 69.4581 47.2859C69.4841 47.2104 69.4982 47.1231 69.4982 47.0287C69.4982 46.8825 69.4699 46.7598 69.4133 46.6607C69.3567 46.5617 69.2812 46.4815 69.1892 46.4201C69.0972 46.3588 68.9887 46.3163 68.8684 46.2904C68.7481 46.2644 68.623 46.2503 68.4957 46.2503C68.3518 46.2503 68.2079 46.2621 68.064 46.2857C67.9201 46.3093 67.7809 46.3494 67.6464 46.4036L67.6818 46.8919C67.788 46.8377 67.8988 46.7976 68.0121 46.7716C68.1253 46.7457 68.2432 46.7315 68.3635 46.7315C68.432 46.7315 68.498 46.7386 68.5593 46.7504C68.623 46.7622 68.6773 46.7834 68.7268 46.8141C68.774 46.8447 68.8141 46.8848 68.8424 46.9367C68.8707 46.9886 68.8849 47.0547 68.8849 47.1325C68.8849 47.1939 68.8731 47.2481 68.8495 47.2906C68.8259 47.3331 68.7929 47.3708 68.7528 47.3991C68.7127 47.4298 68.6631 47.4534 68.6112 47.4699C68.5593 47.4864 68.5004 47.5005 68.4414 47.51C68.3824 47.5194 68.3234 47.5241 68.2621 47.5289C68.2031 47.5312 68.1465 47.5336 68.0923 47.5336C68.0616 47.5336 68.0309 47.5336 68.005 47.5336C67.979 47.5336 67.9531 47.5336 67.9295 47.5336V48.0124C67.9625 48.0124 68.0003 48.0124 68.038 48.0124C68.0757 48.0124 68.1135 48.0124 68.1512 48.0124C68.2385 48.0124 68.3258 48.0172 68.4154 48.0242C68.5051 48.0313 68.5853 48.0526 68.6561 48.0856C68.7268 48.1186 68.7858 48.1658 68.8306 48.2295C68.8755 48.2932 68.899 48.3805 68.899 48.489C68.899 48.5645 68.8778 48.6305 68.833 48.6848C68.7882 48.739 68.7363 48.7838 68.6726 48.8192C68.6089 48.8546 68.5405 48.8782 68.465 48.8947C68.3895 48.9112 68.3211 48.9183 68.2574 48.9183C68.1418 48.9183 68.0286 48.9065 67.913 48.8829C67.7997 48.8593 67.6889 48.8239 67.5827 48.7791L67.5473 49.2957C67.6771 49.3335 67.8092 49.3594 67.9436 49.3736C68.0757 49.3901 68.2102 49.3972 68.3447 49.3972C68.5499 49.3972 68.7504 49.3618 68.9415 49.291C68.9722 49.2792 69.0005 49.2674 69.0311 49.2556C69.0618 49.2438 69.0901 49.2297 69.1184 49.2132C69.1845 49.1754 69.2434 49.133 69.293 49.0811C69.3425 49.0292 69.3826 48.9726 69.4133 48.9089C69.4463 48.8452 69.4699 48.7791 69.4841 48.7084C69.5006 48.6376 69.5077 48.5645 69.5077 48.4913C69.5077 48.397 69.4959 48.3073 69.4723 48.2248C69.4487 48.1422 69.4133 48.0691 69.3638 48.0077L69.3685 48.0054Z" fill="white"/>
<path d="M71.133 48.4725C71.2604 48.338 71.3831 48.1988 71.4986 48.0573C71.5505 47.9936 71.5977 47.9252 71.6449 47.852C71.6921 47.7789 71.7322 47.7034 71.7676 47.6256C71.8029 47.5477 71.8289 47.4675 71.8501 47.385C71.8714 47.3024 71.8808 47.2198 71.8808 47.1373C71.8808 46.9839 71.8596 46.8518 71.8148 46.741C71.7699 46.6301 71.7062 46.5381 71.6237 46.465C71.5411 46.3918 71.4397 46.3376 71.3241 46.3022C71.2085 46.2668 71.0764 46.2479 70.9301 46.2479C70.7721 46.2479 70.6187 46.2668 70.4654 46.3022C70.3144 46.3399 70.1682 46.3918 70.0266 46.465L70.0738 46.9721C70.1823 46.9037 70.2932 46.8447 70.4088 46.7976C70.5244 46.7504 70.647 46.7268 70.7768 46.7268C70.8428 46.7268 70.9042 46.7339 70.9632 46.7504C71.0221 46.7669 71.074 46.7905 71.1212 46.8235C71.1684 46.8565 71.2038 46.899 71.2297 46.9509C71.2557 47.0028 71.2722 47.0641 71.2722 47.1373C71.2722 47.2269 71.2486 47.3213 71.2014 47.4251C71.1542 47.5265 71.0929 47.6326 71.015 47.7388C70.9396 47.845 70.8523 47.9511 70.7556 48.0549C70.6588 48.1587 70.5645 48.2601 70.4654 48.3569C70.3687 48.4536 70.2743 48.5409 70.1847 48.6234C70.095 48.706 70.0172 48.7744 69.9559 48.8334V49.3429H71.9775V48.864H70.7367C70.8735 48.7367 71.0056 48.6069 71.133 48.4725Z" fill="white"/>
<path d="M65.1294 7.29863C65.344 7.29863 65.5634 7.24437 65.7639 7.12878L65.7781 7.11934C66.2216 6.86221 66.4504 6.38098 66.4079 5.9021L70.3451 3.62096L77.7146 7.87186V10.9032H78.7785V7.25852L70.3451 2.39429L65.8748 4.9821C65.4832 4.7061 64.9501 4.66599 64.5066 4.92076L64.4924 4.9302C63.8862 5.28169 63.6786 6.0578 64.0277 6.66642C64.2636 7.07452 64.6906 7.30099 65.1294 7.30099V7.29863Z" fill="white"/>
<path d="M72.6593 27.35L72.6428 27.3406C72.1969 27.0906 71.6638 27.1377 71.2745 27.4185L67.0803 25.0618V14.5572H66.0163V25.6846L70.7532 28.3455C70.7155 28.8244 70.9514 29.3033 71.3972 29.5533L71.4137 29.5628C71.6095 29.6737 71.8242 29.7255 72.0341 29.7255C72.4776 29.7255 72.9093 29.492 73.1429 29.0768C73.4873 28.4658 73.2702 27.6921 72.6569 27.3477L72.6593 27.35Z" fill="white"/>
<path d="M84.7868 22.8184L84.775 22.8255C84.308 23.1039 84.0721 23.6252 84.1358 24.1324L79.4956 26.8853L70.397 21.6319L69.8662 22.5519L79.5027 28.1144L84.6783 25.043C84.9048 25.2057 85.1784 25.293 85.4568 25.293C85.688 25.293 85.9215 25.2317 86.1338 25.1066L86.1456 25.0996C86.7755 24.7245 86.9831 23.9083 86.608 23.2784C86.2329 22.6486 85.4167 22.441 84.7868 22.8161V22.8184Z" fill="white"/>
<path d="M89 10.1483V10.12C88.9906 9.41936 88.415 8.85556 87.7143 8.865C87.0137 8.87443 86.4523 9.44767 86.4594 10.1506V10.179C86.4664 10.6861 86.7684 11.1202 87.2024 11.3183L87.2685 17.0082L78.1699 22.2617L78.7006 23.1817L88.3371 17.6192L88.264 11.316C88.7028 11.1108 89.0047 10.6649 88.9976 10.1506L89 10.1483Z" fill="white"/>
<path d="M76.8653 2.9746L76.8889 2.98875C77.0895 3.10434 77.3065 3.1586 77.5211 3.1586C77.783 3.1586 78.0425 3.07603 78.2571 2.9227L82.659 5.45154V14.8498L80.602 16.0623L79.6112 17.9188L75.2141 19.6975L72.5272 17.8433L71.6921 15.39L69.9252 13.6537L69.1798 14.411L70.765 15.9703L71.6307 18.5156L75.0772 20.8935L80.3637 18.7562L81.397 16.8219L83.7182 15.4537V4.83584L78.7808 2.00033C78.8233 1.52146 78.5921 1.04022 78.1486 0.785454L78.125 0.7713C77.5164 0.422169 76.7403 0.632119 76.3912 1.24074C76.0421 1.84936 76.252 2.62547 76.8606 2.9746H76.8653Z" fill="white"/>
<path d="M62.5368 18.8011V13.3494L71.2226 8.30827L72.1757 8.84612L72.4163 11.2051L74.0912 12.847L76.3534 13.7717L77.4174 15.4018L78.5166 16.2133L79.1488 15.3569L78.2029 14.6587L77.0635 12.913L74.688 11.9411L73.4354 10.7144L73.1782 8.19033L71.2156 7.08396L61.4753 12.7385V18.8011C61.0389 19.0016 60.7369 19.4427 60.7369 19.9546V19.9806C60.7369 20.6812 61.3054 21.2497 62.0061 21.2497C62.7067 21.2497 63.2752 20.6812 63.2752 19.9806V19.9546C63.2752 19.4427 62.9732 19.0016 62.5368 18.8011Z" fill="white"/>
</svg>
