<svg width="96" height="54" viewBox="0 0 96 54" fill="none" xmlns="http://www.w3.org/2000/svg">
<path d="M3.63617 45.5465C3.59839 45.4508 3.54551 45.3702 3.48255 45.2997C3.41959 45.2292 3.34655 45.1687 3.26848 45.1158C3.18789 45.0629 3.10478 45.0176 3.01915 44.9773C2.93101 44.9395 2.84538 44.9018 2.75975 44.869C2.67413 44.8363 2.59102 44.8035 2.51295 44.7708C2.43487 44.7381 2.36688 44.7053 2.30895 44.6676C2.25103 44.6298 2.20318 44.587 2.16792 44.5391C2.13266 44.4913 2.11503 44.4359 2.11503 44.3704C2.11503 44.2847 2.13014 44.2092 2.16036 44.1462C2.19059 44.0833 2.23088 44.0304 2.28125 43.9901C2.33162 43.9473 2.39206 43.9171 2.46006 43.8969C2.52806 43.8768 2.60361 43.8667 2.68672 43.8667C2.81264 43.8667 2.93856 43.8793 3.06197 43.907C3.18537 43.9347 3.30626 43.9725 3.4221 44.0228L3.4901 43.426C3.34907 43.3806 3.20552 43.3479 3.05945 43.3277C2.9159 43.3076 2.76983 43.2975 2.61872 43.2975C2.46761 43.2975 2.31651 43.3177 2.1654 43.3554C2.01681 43.3932 1.8783 43.4562 1.75238 43.5418C1.68186 43.5897 1.62142 43.6451 1.57105 43.7105C1.52068 43.776 1.47787 43.8465 1.44765 43.9196C1.41742 43.9926 1.39224 44.0732 1.37713 44.1563C1.36202 44.2394 1.35446 44.3225 1.35446 44.4056C1.35446 44.5064 1.36454 44.5996 1.3872 44.6801C1.40987 44.7632 1.44261 44.8363 1.48542 44.9043C1.52824 44.9698 1.58112 45.0327 1.6466 45.0881C1.70956 45.1435 1.78512 45.1964 1.86823 45.2468C1.91356 45.2745 1.96141 45.3022 2.00674 45.3274C2.05459 45.3526 2.10244 45.3727 2.15029 45.3929C2.24095 45.4281 2.33414 45.4659 2.42732 45.5012C2.5205 45.5364 2.60865 45.5817 2.69679 45.6296C2.72953 45.6472 2.76227 45.6724 2.79753 45.7001C2.83279 45.7278 2.86049 45.758 2.88064 45.7857C2.9033 45.8185 2.91842 45.8537 2.92849 45.8915C2.93856 45.9293 2.9436 45.9696 2.9436 46.0074C2.9436 46.0905 2.92345 46.161 2.88316 46.2189C2.84286 46.2768 2.78998 46.3247 2.72953 46.3625C2.66657 46.4002 2.59857 46.4279 2.52302 46.4456C2.44747 46.4632 2.37443 46.4733 2.30643 46.4733C2.16288 46.4733 2.02185 46.4531 1.88082 46.4153C1.73979 46.3776 1.60883 46.3222 1.48542 46.2516L1.41742 46.9064C1.57105 46.9442 1.72467 46.9795 1.8783 47.0072C2.03192 47.0349 2.18807 47.05 2.34673 47.05C2.52554 47.05 2.69679 47.0299 2.86049 46.9921C3.02419 46.9543 3.16774 46.8913 3.29366 46.8032C3.41959 46.7176 3.5178 46.6042 3.59336 46.4632C3.66639 46.3247 3.70417 46.1534 3.70417 45.952C3.70417 45.889 3.69913 45.8235 3.69158 45.7505C3.68402 45.6774 3.66639 45.6145 3.64373 45.554L3.63617 45.5465Z" fill="#001C71"/>
<path d="M5.39404 43.3554L3.98372 46.977H4.73673L5.05405 46.1459H6.52231L6.83459 46.977H7.63797L6.21757 43.3554H5.39404ZM5.26057 45.5767L5.7844 44.0833H5.79448L6.31831 45.5767H5.26057Z" fill="#001C71"/>
<path d="M10.3075 45.4458C10.3075 45.5767 10.2974 45.7026 10.2773 45.826C10.2572 45.9494 10.2194 46.0577 10.164 46.1534C10.1086 46.2491 10.0305 46.3247 9.93479 46.3826C9.83657 46.4405 9.71065 46.4682 9.55703 46.4682C9.4034 46.4682 9.28 46.438 9.1843 46.3801C9.08608 46.3222 9.01052 46.2441 8.95512 46.1484C8.89971 46.0527 8.85942 45.9444 8.83927 45.821C8.81912 45.6976 8.80653 45.5742 8.80653 45.4458V43.3529H8.0787V45.6674C8.0787 45.9117 8.11144 46.1182 8.17944 46.2919C8.24744 46.4657 8.34314 46.6068 8.47158 46.7176C8.60002 46.8284 8.75364 46.909 8.93497 46.9618C9.1163 47.0122 9.32533 47.0399 9.55451 47.0399C9.78369 47.0399 9.99272 47.0147 10.1766 46.9618C10.3604 46.909 10.514 46.8284 10.6425 46.7176C10.7709 46.6068 10.8666 46.4657 10.9346 46.2919C11.0026 46.1182 11.0354 45.9117 11.0354 45.6674V43.3529H10.3075V45.4458Z" fill="#001C71"/>
<path d="M14.8004 44.3578C14.7526 44.2319 14.6871 44.1135 14.609 44.0052C14.5284 43.8969 14.4277 43.8012 14.3068 43.7206C14.2061 43.6551 14.0978 43.5997 13.9819 43.5519C13.8661 43.504 13.7477 43.4688 13.6268 43.4386C13.5034 43.4083 13.38 43.3882 13.2566 43.3756C13.1332 43.363 13.0123 43.3554 12.894 43.3554H11.8538V46.977H12.8436C13.1534 46.977 13.4354 46.9467 13.6923 46.8838C13.9492 46.8208 14.1683 46.7176 14.3521 46.5765C14.536 46.433 14.677 46.2466 14.7803 46.0174C14.8835 45.7857 14.9339 45.5037 14.9339 45.1662C14.9339 45.0302 14.9238 44.8917 14.9037 44.7557C14.8835 44.6172 14.8508 44.4862 14.8029 44.3603L14.8004 44.3578ZM14.0877 45.6573C14.0298 45.8084 13.9492 45.9394 13.8434 46.0502C13.7376 46.161 13.6142 46.2491 13.4682 46.3121C13.3221 46.3751 13.1584 46.4078 12.9796 46.4078H12.5766V43.9271H12.9796C13.1584 43.9271 13.3221 43.9573 13.4682 44.0228C13.6142 44.0858 13.7402 44.1739 13.8459 44.2847C13.9517 44.3956 14.0323 44.5265 14.0877 44.6776C14.1431 44.8287 14.1733 44.9924 14.1733 45.1687C14.1733 45.345 14.1456 45.5087 14.0877 45.6598V45.6573Z" fill="#001C71"/>
<path d="M16.2636 43.3554H15.5358V46.977H16.2636V43.3554Z" fill="#001C71"/>
<path d="M19.2077 45.3878H20.4997V44.8187H19.2077V43.9271H20.618V43.3554H18.4799V46.977H20.6281V46.4078H19.2077V45.3878Z" fill="#001C71"/>
<path d="M22.0938 43.3554H21.366V46.977H23.4991V46.4078H22.0938V43.3554Z" fill="#001C71"/>
<path d="M24.6878 45.3878H25.9798V44.8187H24.6878V43.9271H26.0981V43.3554H23.96V46.977H26.1082V46.4078H24.6878V45.3878Z" fill="#001C71"/>
<path d="M29.2689 46.3851C29.2034 46.4028 29.1329 46.4204 29.0624 46.433C28.9918 46.4456 28.9213 46.4556 28.8508 46.4607C28.7803 46.4657 28.7173 46.4708 28.6569 46.4708C28.4655 46.4708 28.2917 46.438 28.1406 46.3725C27.9895 46.3071 27.8585 46.2164 27.7553 46.1031C27.652 45.9897 27.5689 45.8512 27.511 45.6951C27.4531 45.5389 27.4254 45.3652 27.4254 45.1788C27.4254 44.9924 27.4531 44.8262 27.5085 44.665C27.5639 44.5064 27.642 44.3653 27.7477 44.247C27.851 44.1286 27.9794 44.0354 28.128 43.9674C28.2791 43.8994 28.4479 43.8642 28.6393 43.8642C28.7173 43.8642 28.7878 43.8667 28.8533 43.8742C28.9188 43.8818 28.9818 43.8894 29.0447 43.9045C29.1077 43.9196 29.1681 43.9372 29.2286 43.9624C29.289 43.9876 29.3545 44.0178 29.4225 44.0581L29.4729 43.4461C29.3419 43.4008 29.2059 43.363 29.0699 43.3378C28.9339 43.3101 28.7954 43.2975 28.6544 43.2975C28.4151 43.2975 28.1885 43.3227 27.9794 43.3731C27.7704 43.4234 27.5815 43.5015 27.4128 43.6123C27.244 43.7231 27.103 43.8616 26.9846 44.0354C26.8663 44.2092 26.7806 44.4182 26.7278 44.6676C26.7076 44.7582 26.6925 44.8514 26.6799 44.9496C26.6698 45.0453 26.6623 45.141 26.6623 45.2367C26.6623 45.3677 26.6724 45.4961 26.69 45.622C26.7076 45.748 26.7403 45.8688 26.7832 45.9847C26.826 46.1005 26.8839 46.2088 26.9569 46.3121C27.0275 46.4153 27.1181 46.5085 27.2214 46.5942C27.3246 46.6773 27.4329 46.7503 27.5437 46.8082C27.6545 46.8661 27.7729 46.914 27.8913 46.9493C28.0122 46.9845 28.1356 47.0097 28.2615 47.0248C28.3874 47.0399 28.5184 47.0475 28.6493 47.0475C28.7878 47.0475 28.9264 47.0374 29.0649 47.0173C29.2034 46.9971 29.3394 46.9694 29.4729 46.9316L29.4426 46.3247C29.3897 46.3499 29.3293 46.3725 29.2613 46.3902L29.2689 46.3851Z" fill="#001C71"/>
<path d="M29.634 43.9271H30.6742V46.977H31.402V43.9271H32.4371V43.3554H29.634V43.9271Z" fill="#001C71"/>
<path d="M34.9026 45.4306C34.88 45.3878 34.8522 45.35 34.822 45.3173C34.7918 45.2846 34.7565 45.2543 34.7163 45.2317C34.676 45.209 34.6306 45.1939 34.5803 45.1864V45.1763C34.6911 45.1612 34.7943 45.1309 34.885 45.0831C34.9782 45.0378 35.0562 44.9773 35.1217 44.9043C35.1872 44.8312 35.2376 44.7481 35.2728 44.6524C35.3081 44.5567 35.3257 44.451 35.3257 44.3376C35.3257 44.1815 35.3056 44.048 35.2653 43.9372C35.225 43.8264 35.1696 43.7357 35.0991 43.6627C35.0285 43.5897 34.9454 43.5343 34.8472 43.4914C34.7515 43.4511 34.6483 43.4184 34.5374 43.3983C34.4266 43.3781 34.3108 43.3655 34.1899 43.3605C34.069 43.3554 33.9481 43.3529 33.8298 43.3529H32.8375V46.9744H33.5653V45.4709H33.7995C33.8776 45.4709 33.9431 45.4785 33.9935 45.4911C34.0463 45.5037 34.0917 45.5238 34.1269 45.554C34.1622 45.5843 34.1949 45.622 34.2226 45.6699C34.2478 45.7177 34.2755 45.7757 34.3032 45.8462L34.7389 46.977H35.5473L34.9681 45.5616C34.9505 45.5188 34.9278 45.476 34.9051 45.4332L34.9026 45.4306ZM34.5576 44.5366C34.55 44.587 34.5324 44.6298 34.5097 44.665C34.477 44.7179 34.4317 44.7582 34.3737 44.791C34.3158 44.8237 34.2554 44.8464 34.1899 44.864C34.1244 44.8816 34.0564 44.8917 33.9909 44.8967C33.9229 44.9018 33.86 44.9043 33.8046 44.9043H33.5653V43.9296H33.8046C33.8927 43.9296 33.9809 43.9296 34.0741 43.9372C34.1647 43.9422 34.2478 43.9599 34.3234 43.9901C34.3964 44.0203 34.4569 44.0682 34.5047 44.1311C34.55 44.1941 34.5752 44.2847 34.5752 44.4006C34.5752 44.4434 34.5702 44.4887 34.5626 44.5391L34.5576 44.5366Z" fill="#001C71"/>
<path d="M38.9825 43.8088C38.8314 43.6451 38.6475 43.5191 38.4259 43.4285C38.2043 43.3403 37.9524 43.295 37.6679 43.295C37.3833 43.295 37.1264 43.3403 36.9048 43.4285C36.6832 43.5166 36.4968 43.6425 36.3482 43.8062C36.1971 43.9699 36.0838 44.1639 36.0082 44.393C35.9301 44.6222 35.8924 44.8766 35.8924 45.1561C35.8924 45.4357 35.9301 45.69 36.0082 45.9192C36.0863 46.1484 36.1996 46.3473 36.3482 46.5136C36.4993 46.6798 36.6832 46.8082 36.9048 46.9014C37.1264 46.9946 37.3808 47.0399 37.6679 47.0399C37.955 47.0399 38.2068 46.9946 38.4284 46.9014C38.6501 46.8082 38.8339 46.6798 38.985 46.5136C39.1336 46.3473 39.2469 46.1484 39.325 45.9192C39.4031 45.6875 39.4409 45.4357 39.4409 45.1586C39.4409 44.8816 39.4031 44.6273 39.325 44.3981C39.2469 44.1689 39.1336 43.975 38.9825 43.8113V43.8088ZM38.6299 45.6321C38.5947 45.7883 38.5342 45.9293 38.4561 46.0527C38.3755 46.1761 38.2723 46.2768 38.1413 46.3524C38.0129 46.4279 37.8542 46.4657 37.6679 46.4657C37.4815 46.4657 37.3304 46.4279 37.1994 46.3524C37.071 46.2768 36.9652 46.1786 36.8846 46.0577C36.804 45.9368 36.7436 45.7983 36.7058 45.6422C36.668 45.486 36.6479 45.3299 36.6479 45.1687C36.6479 45.0075 36.6655 44.8514 36.7033 44.6953C36.7411 44.5391 36.799 44.4006 36.8821 44.2747C36.9652 44.1513 37.0685 44.0505 37.1994 43.975C37.3279 43.8969 37.484 43.8591 37.6679 43.8591C37.8517 43.8591 38.0079 43.8969 38.1363 43.9699C38.2647 44.0455 38.3705 44.1412 38.4511 44.2646C38.5317 44.3855 38.5921 44.524 38.6274 44.6776C38.6652 44.8312 38.6828 44.9899 38.6828 45.1511C38.6828 45.3123 38.6652 45.4709 38.6274 45.6271L38.6299 45.6321Z" fill="#001C71"/>
<path d="M42.3522 46.0653H42.3421L40.962 43.3554H40.0705V46.977H40.763V44.2696H40.7731L42.1608 46.977H43.0473V43.3554H42.3522V46.0653Z" fill="#001C71"/>
<path d="M44.5155 43.3554H43.7877V46.977H44.5155V43.3554Z" fill="#001C71"/>
<path d="M47.7164 46.3851C47.651 46.4028 47.5805 46.4204 47.5099 46.433C47.4394 46.4456 47.3689 46.4556 47.2984 46.4607C47.2279 46.4657 47.1649 46.4708 47.1045 46.4708C46.9131 46.4708 46.7393 46.438 46.5882 46.3725C46.4371 46.3071 46.3061 46.2164 46.2029 46.1031C46.0996 45.9897 46.0165 45.8512 45.9586 45.6951C45.9007 45.5389 45.8729 45.3652 45.8729 45.1788C45.8729 44.9924 45.9007 44.8262 45.9561 44.665C46.0115 44.5064 46.0895 44.3653 46.1953 44.247C46.2986 44.1286 46.427 44.0354 46.5756 43.9674C46.7267 43.8994 46.8954 43.8642 47.0868 43.8642C47.1649 43.8642 47.2354 43.8667 47.3009 43.8742C47.3664 43.8818 47.4293 43.8894 47.4923 43.9045C47.5553 43.9196 47.6157 43.9372 47.6762 43.9624C47.7366 43.9876 47.8021 44.0178 47.8701 44.0581L47.9204 43.4461C47.7895 43.4008 47.6535 43.363 47.5175 43.3378C47.3815 43.3101 47.243 43.2975 47.1019 43.2975C46.8627 43.2975 46.636 43.3227 46.427 43.3731C46.218 43.4234 46.0291 43.5015 45.8604 43.6123C45.6916 43.7231 45.5506 43.8616 45.4322 44.0354C45.3139 44.2092 45.2282 44.4182 45.1753 44.6676C45.1552 44.7582 45.1401 44.8514 45.1275 44.9496C45.1174 45.0453 45.1099 45.141 45.1099 45.2367C45.1099 45.3677 45.1199 45.4961 45.1376 45.622C45.1552 45.748 45.1879 45.8688 45.2307 45.9847C45.2736 46.1005 45.3315 46.2088 45.4045 46.3121C45.475 46.4153 45.5657 46.5085 45.669 46.5942C45.7722 46.6773 45.8805 46.7503 45.9913 46.8082C46.1021 46.8661 46.2205 46.914 46.3389 46.9493C46.4597 46.9845 46.5831 47.0097 46.7091 47.0248C46.835 47.0399 46.966 47.0475 47.0969 47.0475C47.2354 47.0475 47.3739 47.0374 47.5125 47.0173C47.651 46.9971 47.787 46.9694 47.9204 46.9316L47.8902 46.3247C47.8373 46.3499 47.7769 46.3725 47.7089 46.3902L47.7164 46.3851Z" fill="#001C71"/>
<path d="M52.1086 45.4458C52.1086 45.5767 52.0985 45.7026 52.0784 45.826C52.0582 45.9494 52.0205 46.0577 51.9651 46.1534C51.9097 46.2491 51.8316 46.3247 51.7359 46.3826C51.6377 46.4405 51.5117 46.4682 51.3581 46.4682C51.2045 46.4682 51.0811 46.438 50.9854 46.3801C50.8872 46.3222 50.8116 46.2441 50.7562 46.1484C50.7008 46.0527 50.6605 45.9444 50.6404 45.821C50.6202 45.6976 50.6076 45.5742 50.6076 45.4458V43.3529H49.8798V45.6674C49.8798 45.9117 49.9125 46.1182 49.9805 46.2919C50.0485 46.4657 50.1442 46.6068 50.2727 46.7176C50.4011 46.8284 50.5547 46.909 50.7361 46.9618C50.9174 47.0122 51.1264 47.0399 51.3556 47.0399C51.5848 47.0399 51.7938 47.0147 51.9776 46.9618C52.1615 46.909 52.3151 46.8284 52.4436 46.7176C52.572 46.6068 52.6677 46.4657 52.7357 46.2919C52.8037 46.1182 52.8364 45.9117 52.8364 45.6674V43.3529H52.1086V45.4458Z" fill="#001C71"/>
<path d="M56.5914 43.3554H55.8989V46.0653H55.8888L54.5062 43.3554H53.6146V46.977H54.3097V44.2696H54.3198L55.7049 46.977H56.5914V43.3554Z" fill="#001C71"/>
<path d="M58.0622 43.3554H57.3344V46.977H58.0622V43.3554Z" fill="#001C71"/>
<path d="M60.6083 46.977L61.8273 43.3554H61.107L60.1878 46.1988H60.1777L59.2484 43.3554H58.4702L59.7143 46.977H60.6083Z" fill="#001C71"/>
<path d="M64.4364 43.9271V43.3554H62.2982V46.977H64.4464V46.4078H63.0261V45.3878H64.318V44.8187H63.0261V43.9271H64.4364Z" fill="#001C71"/>
<path d="M67.1865 45.4306C67.1638 45.3878 67.1361 45.35 67.1059 45.3173C67.0757 45.2846 67.0404 45.2543 67.0002 45.2317C66.9599 45.209 66.9145 45.1939 66.8642 45.1864V45.1763C66.975 45.1612 67.0782 45.1309 67.1689 45.0831C67.2595 45.0352 67.3401 44.9773 67.4056 44.9043C67.4711 44.8312 67.5215 44.7481 67.5567 44.6524C67.592 44.5567 67.6096 44.451 67.6096 44.3376C67.6096 44.1815 67.5895 44.048 67.5492 43.9372C67.5089 43.8264 67.4535 43.7357 67.3829 43.6627C67.3124 43.5897 67.2293 43.5343 67.1311 43.4914C67.0354 43.4511 66.9321 43.4184 66.8213 43.3983C66.7105 43.3781 66.5947 43.3655 66.4738 43.3605C66.3529 43.3554 66.232 43.3529 66.1137 43.3529H65.1214V46.9744H65.8492V45.4709H66.0834C66.1615 45.4709 66.227 45.4785 66.2774 45.4911C66.3302 45.5037 66.3756 45.5238 66.4108 45.554C66.4461 45.5843 66.4788 45.622 66.5065 45.6699C66.5317 45.7177 66.5594 45.7757 66.5871 45.8462L67.0228 46.977H67.8312L67.252 45.5616C67.2344 45.5188 67.2117 45.476 67.189 45.4332L67.1865 45.4306ZM66.8415 44.5366C66.8339 44.587 66.8163 44.6298 66.7936 44.665C66.7609 44.7179 66.7156 44.7582 66.6576 44.791C66.5997 44.8237 66.5393 44.8464 66.4738 44.864C66.4083 44.8816 66.3403 44.8917 66.2748 44.8967C66.2068 44.9018 66.1439 44.9043 66.0885 44.9043H65.8492V43.9296H66.0885C66.1766 43.9296 66.2648 43.9296 66.3579 43.9372C66.4486 43.9422 66.5317 43.9599 66.6073 43.9901C66.6803 44.0203 66.7407 44.0682 66.7886 44.1311C66.8339 44.1941 66.8591 44.2847 66.8591 44.4006C66.8591 44.4434 66.8541 44.4887 66.8465 44.5391L66.8415 44.5366Z" fill="#001C71"/>
<path d="M70.5788 45.9444C70.5788 45.8814 70.5738 45.816 70.5663 45.7429C70.5587 45.6699 70.5411 45.6069 70.5184 45.5465C70.4806 45.4508 70.4277 45.3702 70.3648 45.2997C70.3018 45.2292 70.2288 45.1687 70.1507 45.1158C70.0701 45.0629 69.987 45.0176 69.9014 44.9773C69.8158 44.937 69.7276 44.9018 69.642 44.869C69.5564 44.8363 69.4733 44.8035 69.3952 44.7708C69.3171 44.7381 69.2491 44.7053 69.1912 44.6676C69.1307 44.6298 69.0854 44.587 69.0502 44.5391C69.0149 44.4913 68.9973 44.4359 68.9973 44.3704C68.9973 44.2847 69.0124 44.2092 69.0426 44.1462C69.0728 44.0833 69.1131 44.0304 69.1635 43.9901C69.2139 43.9473 69.2743 43.9171 69.3423 43.8969C69.4103 43.8768 69.4858 43.8667 69.5664 43.8667C69.6924 43.8667 69.8183 43.8793 69.9417 43.907C70.0651 43.9347 70.186 43.9725 70.3018 44.0228L70.3698 43.426C70.2288 43.3806 70.0852 43.3479 69.9392 43.3277C69.7956 43.3076 69.647 43.2975 69.4984 43.2975C69.3499 43.2975 69.1962 43.3177 69.0451 43.3554C68.8965 43.3932 68.758 43.4562 68.6321 43.5418C68.5616 43.5897 68.5011 43.6451 68.4508 43.7105C68.4004 43.776 68.3576 43.8465 68.3274 43.9196C68.2946 43.9926 68.272 44.0732 68.2569 44.1563C68.2417 44.2394 68.2342 44.3225 68.2342 44.4056C68.2342 44.5064 68.2443 44.5996 68.2669 44.6801C68.2896 44.7607 68.3223 44.8363 68.3651 44.9043C68.408 44.9698 68.4608 45.0327 68.5263 45.0881C68.5893 45.1435 68.6648 45.1964 68.7479 45.2468C68.7933 45.2745 68.8411 45.3022 68.8865 45.3274C68.9343 45.3526 68.9822 45.3727 69.03 45.3929C69.1207 45.4281 69.2139 45.4659 69.307 45.5012C69.4002 45.5389 69.4884 45.5817 69.5765 45.6296C69.6093 45.6472 69.642 45.6724 69.6772 45.7001C69.7125 45.7278 69.7402 45.758 69.7604 45.7857C69.783 45.8185 69.7981 45.8537 69.8082 45.8915C69.8183 45.9293 69.8233 45.9696 69.8233 46.0074C69.8233 46.0905 69.8032 46.161 69.7629 46.2189C69.7226 46.2768 69.6697 46.3247 69.6093 46.3625C69.5463 46.4002 69.4783 46.4279 69.4027 46.4456C69.3272 46.4632 69.2542 46.4733 69.1836 46.4733C69.0401 46.4733 68.8991 46.4531 68.7605 46.4153C68.622 46.3776 68.4885 46.3222 68.3651 46.2516L68.2971 46.9064C68.4508 46.9442 68.6044 46.9795 68.758 47.0072C68.9116 47.0349 69.0678 47.05 69.2264 47.05C69.4053 47.05 69.5765 47.0299 69.7402 46.9921C69.9039 46.9543 70.0475 46.8913 70.1734 46.8032C70.2993 46.7176 70.3975 46.6042 70.4731 46.4632C70.5461 46.3247 70.5839 46.1534 70.5839 45.952L70.5788 45.9444Z" fill="#001C71"/>
<path d="M71.9035 43.3554H71.1757V46.977H71.9035V43.3554Z" fill="#001C71"/>
<path d="M74.0669 46.977V43.9271H75.102V43.3554H72.3015V43.9271H73.3391V46.977H74.0669Z" fill="#001C71"/>
<path d="M76.5274 46.977H77.2527V45.5465L78.5497 43.3554H77.7816L76.9102 44.8766L76.0514 43.3554H75.2027L76.5274 45.5465V46.977Z" fill="#001C71"/>
<path d="M2.10748 36.0998C2.14525 36.1376 2.18807 36.1678 2.23844 36.188C2.28881 36.2081 2.34169 36.2207 2.39962 36.2207C2.45754 36.2207 2.51043 36.2106 2.5608 36.188C2.61117 36.1678 2.65398 36.1376 2.69176 36.0998C2.72953 36.062 2.75975 36.0192 2.7799 35.9689C2.80257 35.9185 2.81264 35.8656 2.81264 35.8077C2.81264 35.7498 2.80257 35.6969 2.7799 35.6465C2.75724 35.5961 2.72953 35.5533 2.69176 35.5155C2.65398 35.4778 2.61117 35.4475 2.5608 35.4274C2.51043 35.4047 2.45754 35.3946 2.39962 35.3946C2.34169 35.3946 2.28881 35.4047 2.23844 35.4274C2.18807 35.4501 2.14525 35.4778 2.10748 35.5155C2.0697 35.5533 2.03948 35.5961 2.01933 35.6465C1.99667 35.6969 1.98659 35.7498 1.98659 35.8077C1.98659 35.8656 1.99667 35.9185 2.01933 35.9689C2.042 36.0192 2.0697 36.062 2.10748 36.0998Z" fill="#001C71"/>
<path d="M3.07456 36.0998C3.11234 36.1376 3.15515 36.1678 3.20552 36.188C3.25589 36.2081 3.30877 36.2207 3.3667 36.2207C3.42462 36.2207 3.47751 36.2106 3.52788 36.188C3.57825 36.1678 3.62106 36.1376 3.65884 36.0998C3.69661 36.062 3.72684 36.0192 3.74698 35.9689C3.76965 35.9185 3.77972 35.8656 3.77972 35.8077C3.77972 35.7498 3.76965 35.6969 3.74698 35.6465C3.72432 35.5961 3.69661 35.5533 3.65884 35.5155C3.62106 35.4778 3.57825 35.4475 3.52788 35.4274C3.47751 35.4047 3.42462 35.3946 3.3667 35.3946C3.30877 35.3946 3.25589 35.4047 3.20552 35.4274C3.15515 35.4501 3.11234 35.4778 3.07456 35.5155C3.03678 35.5533 3.00656 35.5961 2.98641 35.6465C2.96375 35.6969 2.95367 35.7498 2.95367 35.8077C2.95367 35.8656 2.96375 35.9185 2.98641 35.9689C3.00656 36.0192 3.03678 36.062 3.07456 36.0998Z" fill="#001C71"/>
<path d="M1.79519 39.5576C1.94378 39.5979 2.08985 39.6181 2.2334 39.6181C2.37695 39.6181 2.51547 39.603 2.64642 39.5727C2.77738 39.5425 2.91338 39.4922 3.05189 39.4166C3.0796 39.4745 3.11737 39.5299 3.16522 39.5803C3.21307 39.6307 3.27352 39.676 3.34655 39.7138C3.41959 39.7516 3.51025 39.7818 3.61602 39.8044C3.7218 39.8271 3.84772 39.8372 3.99379 39.8372H4.99865C5.15983 39.8372 5.29582 39.8145 5.40915 39.7667C5.52248 39.7188 5.61567 39.6559 5.69122 39.5727C5.80707 39.6533 5.94055 39.7163 6.09165 39.7641C6.22009 39.8044 6.37875 39.8246 6.55504 39.8321C6.57771 39.8321 6.60289 39.8372 6.6306 39.8372C6.63563 39.8372 6.63815 39.8372 6.64319 39.8372H8.32047V37.1903H7.48183V39.1295H6.65326C6.52231 39.1295 6.39638 39.1194 6.27298 39.0968C6.15209 39.0766 6.03876 39.0439 5.93299 39.0011C5.93803 38.9633 5.94055 38.928 5.94306 38.8902C5.94558 38.8525 5.9481 38.8147 5.9481 38.7744V37.1928H5.10946V38.6611C5.10946 38.7517 5.1019 38.8273 5.08679 38.8877C5.07168 38.9482 5.04902 38.996 5.01628 39.0313C4.98606 39.0665 4.94324 39.0917 4.89287 39.1068C4.8425 39.1219 4.78206 39.1295 4.71155 39.1295H4.13986C4.07438 39.1295 4.01897 39.1219 3.9812 39.1094C3.9409 39.0968 3.91068 39.0741 3.88802 39.0439C3.86535 39.0137 3.85024 38.9708 3.84268 38.9205C3.83513 38.8701 3.83261 38.8046 3.83261 38.7291V36.6438H2.99901V37.009C2.87308 37.0392 2.73709 37.0745 2.5885 37.1198C2.43991 37.1626 2.29132 37.2155 2.14274 37.2759C1.99415 37.3364 1.84808 37.4094 1.70956 37.49C1.57105 37.5731 1.44765 37.6663 1.33935 37.7721C1.23106 37.8778 1.14291 37.9962 1.07995 38.1297C1.01699 38.2632 0.984253 38.4092 0.984253 38.5729C0.984253 38.7593 1.02203 38.9179 1.09758 39.0489C1.17314 39.1799 1.27136 39.2882 1.39224 39.3738C1.51313 39.4569 1.6466 39.5199 1.79519 39.5602V39.5576ZM1.87074 38.2128C1.92867 38.1272 2.00926 38.0516 2.11503 37.9836C2.22081 37.9156 2.34925 37.8552 2.49784 37.8023C2.64642 37.7494 2.81264 37.7041 2.99901 37.6663V38.7593C2.91338 38.8147 2.81264 38.86 2.69931 38.8953C2.58598 38.9305 2.46761 38.9457 2.34421 38.9457C2.27621 38.9457 2.21073 38.9381 2.14525 38.923C2.07726 38.9079 2.01933 38.8827 1.96644 38.8474C1.91356 38.8122 1.87074 38.7643 1.838 38.7064C1.80526 38.6485 1.78764 38.578 1.78764 38.4923C1.78764 38.3891 1.81534 38.2959 1.87326 38.2103L1.87074 38.2128Z" fill="#001C71"/>
<path d="M6.12187 40.3812C6.0715 40.3585 6.01862 40.3484 5.96069 40.3484C5.90277 40.3484 5.84988 40.3585 5.79951 40.3812C5.74914 40.4013 5.70633 40.4315 5.66855 40.4693C5.63078 40.5071 5.60056 40.5499 5.58041 40.6003C5.55774 40.6506 5.54767 40.7035 5.54767 40.7614C5.54767 40.8194 5.55774 40.8723 5.58041 40.9226C5.60056 40.973 5.63078 41.0158 5.66855 41.0536C5.70633 41.0914 5.74914 41.1216 5.79951 41.1417C5.84988 41.1619 5.90277 41.1745 5.96069 41.1745C6.01862 41.1745 6.0715 41.1644 6.12187 41.1417C6.17224 41.1191 6.21505 41.0914 6.25283 41.0536C6.29061 41.0158 6.32083 40.973 6.34098 40.9226C6.36364 40.8723 6.37372 40.8194 6.37372 40.7614C6.37372 40.7035 6.36364 40.6506 6.34098 40.6003C6.31831 40.5499 6.29061 40.5071 6.25283 40.4693C6.21505 40.4315 6.17224 40.4013 6.12187 40.3812Z" fill="#001C71"/>
<path d="M5.15479 40.3812C5.10442 40.3585 5.05154 40.3484 4.99361 40.3484C4.93569 40.3484 4.8828 40.3585 4.83243 40.3812C4.78206 40.4013 4.73925 40.4315 4.70147 40.4693C4.6637 40.5071 4.63347 40.5499 4.61333 40.6003C4.59318 40.6506 4.58059 40.7035 4.58059 40.7614C4.58059 40.8194 4.59066 40.8723 4.61333 40.9226C4.63599 40.973 4.6637 41.0158 4.70147 41.0536C4.73925 41.0914 4.78206 41.1216 4.83243 41.1417C4.8828 41.1619 4.93569 41.1745 4.99361 41.1745C5.05154 41.1745 5.10442 41.1644 5.15479 41.1417C5.20516 41.1191 5.24797 41.0914 5.28575 41.0536C5.32353 41.0158 5.35375 40.973 5.3739 40.9226C5.39656 40.8723 5.40664 40.8194 5.40664 40.7614C5.40664 40.7035 5.39656 40.6506 5.3739 40.6003C5.35123 40.5499 5.32353 40.5071 5.28575 40.4693C5.24797 40.4315 5.20516 40.4013 5.15479 40.3812Z" fill="#001C71"/>
<path d="M7.59516 36.2686C7.63294 36.3063 7.67575 36.3366 7.72612 36.3567C7.77649 36.3794 7.82938 36.3894 7.8873 36.3894C7.94522 36.3894 7.99811 36.3794 8.04848 36.3567C8.09885 36.3366 8.14166 36.3063 8.17944 36.2686C8.21722 36.2308 8.24744 36.188 8.26758 36.1376C8.28773 36.0872 8.30032 36.0343 8.30032 35.9764C8.30032 35.9185 8.29025 35.8656 8.26758 35.8152C8.24492 35.7649 8.21722 35.722 8.17944 35.6843C8.14166 35.6465 8.09885 35.6163 8.04848 35.5961C7.99811 35.576 7.94522 35.5634 7.8873 35.5634C7.82938 35.5634 7.77649 35.5735 7.72612 35.5961C7.67575 35.6188 7.63294 35.6465 7.59516 35.6843C7.55738 35.722 7.52716 35.7649 7.50702 35.8152C7.48435 35.8656 7.47428 35.9185 7.47428 35.9764C7.47428 36.0343 7.48435 36.0872 7.50702 36.1376C7.52716 36.188 7.55738 36.2308 7.59516 36.2686Z" fill="#001C71"/>
<path d="M12.1762 38.6283C12.1762 38.4168 12.1561 38.2329 12.1158 38.0743C12.0755 37.9156 12.0226 37.7771 11.9546 37.6638C11.8866 37.5504 11.8085 37.4547 11.7178 37.3792C11.6272 37.3036 11.534 37.2432 11.4358 37.2004C11.3376 37.155 11.2343 37.1248 11.1311 37.1072C11.0278 37.0896 10.9296 37.082 10.8339 37.082C10.6198 37.082 10.4209 37.1198 10.237 37.1928C10.0532 37.2659 9.89198 37.3691 9.75347 37.5001C9.61495 37.631 9.50666 37.7847 9.42859 37.966C9.35051 38.1448 9.31022 38.3412 9.31022 38.5528C9.31022 38.6988 9.33792 38.85 9.39081 39.0036C9.4437 39.1572 9.53184 39.2982 9.65021 39.4242C9.76858 39.5501 9.9222 39.6533 10.1111 39.7314C10.3 39.812 10.5291 39.8498 10.7986 39.8498C10.8616 39.8498 10.9371 39.8447 11.0278 39.8372C11.1185 39.8296 11.2041 39.817 11.2872 39.7994C11.2419 39.8951 11.1739 39.9832 11.0807 40.0664C10.9875 40.1495 10.8767 40.2225 10.7482 40.288C10.6198 40.3535 10.4737 40.4089 10.31 40.4567C10.1463 40.5046 9.97257 40.5373 9.7862 40.5575H9.70813L9.7862 41.245C10.1363 41.2097 10.4586 41.1518 10.7508 41.0687C11.0429 40.9856 11.2948 40.8647 11.5063 40.7086C11.7178 40.5499 11.8815 40.3484 11.9999 40.1016C12.1183 39.8548 12.1762 39.5501 12.1762 39.1824V38.6283ZM11.3376 39.0917C11.3149 39.1018 11.2847 39.1119 11.2494 39.1219C11.2142 39.1295 11.1764 39.1371 11.1361 39.1446C11.0958 39.1522 11.0555 39.1572 11.0127 39.1597C10.9699 39.1648 10.9296 39.1673 10.8918 39.1673C10.7558 39.1673 10.64 39.1496 10.5392 39.1144C10.441 39.0791 10.3579 39.0313 10.2949 38.9708C10.232 38.9104 10.1816 38.8348 10.1489 38.7492C10.1161 38.6611 10.101 38.5679 10.101 38.4646C10.101 38.3614 10.1186 38.2632 10.1539 38.175C10.1892 38.0869 10.2345 38.0138 10.2924 37.9509C10.3503 37.8879 10.4183 37.8401 10.4914 37.8048C10.5644 37.7695 10.645 37.7519 10.7281 37.7519C10.8037 37.7519 10.8767 37.767 10.9497 37.7947C11.0228 37.8224 11.0882 37.8753 11.1462 37.9534C11.2041 38.0315 11.2494 38.1398 11.2847 38.2783C11.3199 38.4168 11.3376 38.5981 11.3376 38.8197V39.0917Z" fill="#001C71"/>
<path d="M15.2311 36.2686C15.2689 36.3063 15.3117 36.3366 15.362 36.3567C15.4124 36.3794 15.4653 36.3894 15.5232 36.3894C15.5811 36.3894 15.634 36.3794 15.6844 36.3567C15.7348 36.3366 15.7776 36.3063 15.8154 36.2686C15.8531 36.2308 15.8834 36.188 15.9035 36.1376C15.9236 36.0872 15.9362 36.0343 15.9362 35.9764C15.9362 35.9185 15.9262 35.8656 15.9035 35.8152C15.8808 35.7649 15.8531 35.722 15.8154 35.6843C15.7776 35.6465 15.7348 35.6163 15.6844 35.5961C15.634 35.576 15.5811 35.5634 15.5232 35.5634C15.4653 35.5634 15.4124 35.5735 15.362 35.5961C15.3117 35.6188 15.2689 35.6465 15.2311 35.6843C15.1933 35.722 15.1631 35.7649 15.1429 35.8152C15.1203 35.8656 15.1102 35.9185 15.1102 35.9764C15.1102 36.0343 15.1203 36.0872 15.1429 36.1376C15.1631 36.188 15.1933 36.2308 15.2311 36.2686Z" fill="#001C71"/>
<path d="M16.2007 36.2686C16.2385 36.3063 16.2813 36.3366 16.3316 36.3567C16.382 36.3794 16.4349 36.3894 16.4928 36.3894C16.5507 36.3894 16.6036 36.3794 16.654 36.3567C16.7044 36.3366 16.7472 36.3063 16.785 36.2686C16.8227 36.2308 16.853 36.188 16.8731 36.1376C16.8932 36.0872 16.9058 36.0343 16.9058 35.9764C16.9058 35.9185 16.8958 35.8656 16.8731 35.8152C16.8504 35.7649 16.8227 35.722 16.785 35.6843C16.7472 35.6465 16.7044 35.6163 16.654 35.5961C16.6036 35.576 16.5507 35.5634 16.4928 35.5634C16.4349 35.5634 16.382 35.5735 16.3316 35.5961C16.2813 35.6188 16.2385 35.6465 16.2007 35.6843C16.1629 35.722 16.1327 35.7649 16.1125 35.8152C16.0924 35.8656 16.0798 35.9185 16.0798 35.9764C16.0798 36.0343 16.0899 36.0872 16.1125 36.1376C16.1352 36.188 16.1629 36.2308 16.2007 36.2686Z" fill="#001C71"/>
<path d="M19.2933 39.4846C19.4142 39.5879 19.5578 39.6735 19.7265 39.739C19.8801 39.7994 20.0715 39.8296 20.2931 39.8347C20.2931 39.8347 20.2982 39.8347 20.3007 39.8347C20.3183 39.8347 20.336 39.8347 20.3536 39.8347H21.9704V35.1982H21.1318V39.1295H20.3637C20.2125 39.1295 20.069 39.1169 19.9305 39.0892C19.792 39.0615 19.6686 39.0187 19.5552 38.9582C19.5678 38.8852 19.5754 38.8097 19.5754 38.7291C19.5754 38.5906 19.5552 38.4571 19.5149 38.3362C19.4746 38.2128 19.4117 38.0944 19.3286 37.9761C19.2455 37.8577 19.1422 37.7418 19.0163 37.626C18.8904 37.5101 18.7418 37.3893 18.573 37.2608L19.5552 35.5634L18.9433 35.1705L17.548 37.5177C17.7445 37.6335 17.9183 37.7444 18.0744 37.8501C18.2305 37.9559 18.359 38.0566 18.4673 38.1574C18.573 38.2556 18.6562 38.3538 18.7116 38.447C18.767 38.5402 18.7947 38.6334 18.7947 38.724C18.7947 38.787 18.7846 38.8424 18.767 38.8928C18.7493 38.9431 18.7141 38.9859 18.6662 39.0212C18.6184 39.0565 18.5529 39.0842 18.4698 39.1043C18.3867 39.1245 18.2809 39.1345 18.1525 39.1345H17.1652C17.0343 39.1345 16.9084 39.1245 16.785 39.1018C16.6641 39.0816 16.5507 39.0489 16.445 39.0061C16.45 38.9683 16.4525 38.9331 16.455 38.8953C16.4576 38.8575 16.4601 38.8197 16.4601 38.7794V37.1979H15.6214V38.6661C15.6214 38.7568 15.6139 38.8323 15.5988 38.8928C15.5837 38.9532 15.561 39.0011 15.5282 39.0363C15.498 39.0716 15.4552 39.0968 15.4048 39.1119C15.3545 39.127 15.294 39.1345 15.2235 39.1345H14.2363V37.1953H13.3976V39.4216C13.3976 39.5727 13.3876 39.7037 13.3649 39.817C13.3422 39.9304 13.2994 40.0286 13.2365 40.1117C13.1735 40.1948 13.0828 40.2628 12.967 40.3207C12.8511 40.3761 12.7 40.424 12.5112 40.4592L12.622 41.1745C12.8612 41.1367 13.0703 41.0863 13.2491 41.0183C13.4279 40.9503 13.584 40.8647 13.7125 40.7589C13.8409 40.6532 13.9442 40.5247 14.0247 40.3761C14.1028 40.225 14.1607 40.0462 14.1935 39.8397H15.5131C15.6743 39.8397 15.8103 39.817 15.9236 39.7692C16.037 39.7213 16.1302 39.6584 16.2057 39.5753C16.3216 39.6559 16.455 39.7188 16.6061 39.7667C16.7346 39.807 16.8932 39.8271 17.0695 39.8347C17.0922 39.8347 17.1174 39.8397 17.1451 39.8397C17.1501 39.8397 17.1526 39.8397 17.1577 39.8397H18.2331C18.4874 39.8397 18.7015 39.8095 18.8727 39.7465C19.044 39.6836 19.1875 39.5979 19.2984 39.4871L19.2933 39.4846Z" fill="#001C71"/>
<path d="M26.7655 35.1982H25.9269V39.1295H25.0731V36.2887H24.2345V39.1295H22.7889V39.8372H26.7655V35.1982Z" fill="#001C71"/>
<path d="M24.0607 41.5548H25.262V41.1644H25.0757C24.9422 41.1644 24.844 41.1367 24.781 41.0813C24.718 41.0259 24.6853 40.9629 24.6853 40.8899C24.6853 40.8169 24.708 40.7665 24.7508 40.7363C24.7936 40.706 24.849 40.6935 24.9195 40.6935C24.9573 40.6935 25.0026 40.696 25.0555 40.7035C25.1084 40.7111 25.1562 40.7161 25.189 40.7237L25.2545 40.3258C25.1789 40.3132 25.1134 40.3056 25.0555 40.3006C24.9976 40.2981 24.9447 40.2955 24.8969 40.2955C24.7835 40.2955 24.6853 40.3106 24.6022 40.3384C24.5191 40.3686 24.4511 40.4063 24.3982 40.4542C24.3453 40.502 24.305 40.5575 24.2798 40.6179C24.2546 40.6783 24.2421 40.7413 24.2421 40.8068C24.2421 40.8748 24.2572 40.9403 24.2849 41.0032C24.3151 41.0662 24.3453 41.1191 24.3806 41.1619H24.0632V41.5522L24.0607 41.5548Z" fill="#001C71"/>
<path d="M28.5133 35.2033H27.6747V39.8397H28.5133V35.2033Z" fill="#001C71"/>
<path d="M33.1045 39.7113C33.1775 39.749 33.2682 39.7793 33.3739 39.8019C33.4797 39.8246 33.6056 39.8347 33.7517 39.8347H35.769V37.1878H34.9303V39.127H33.8978C33.8323 39.127 33.7769 39.1194 33.7391 39.1068C33.6988 39.0942 33.6686 39.0716 33.6459 39.0414C33.6232 39.0111 33.6081 38.9683 33.6006 38.9179C33.593 38.8676 33.5905 38.8021 33.5905 38.7265V36.6413H32.7569V37.0065C32.631 37.0367 32.495 37.0719 32.3464 37.1173C32.1978 37.1601 32.0492 37.213 31.9006 37.2734C31.752 37.3339 31.606 37.4069 31.4675 37.4875C31.3289 37.5706 31.2055 37.6638 31.0973 37.7695C30.989 37.8753 30.9008 37.9937 30.8379 38.1272C30.7749 38.2606 30.7422 38.4067 30.7422 38.5704C30.7422 38.7568 30.7799 38.9154 30.8555 39.0464C30.931 39.1773 31.0293 39.2856 31.1501 39.3713C31.271 39.4544 31.4045 39.5173 31.5531 39.5576C31.7017 39.5979 31.8477 39.6181 31.9913 39.6181C32.1348 39.6181 32.2734 39.603 32.4043 39.5727C32.5353 39.5425 32.6713 39.4922 32.8098 39.4166C32.8375 39.4745 32.8753 39.5299 32.9231 39.5803C32.971 39.6307 33.0314 39.676 33.1045 39.7138V39.7113ZM32.7544 38.7593C32.6688 38.8147 32.568 38.86 32.4547 38.8953C32.3414 38.9305 32.223 38.9457 32.0996 38.9457C32.0316 38.9457 31.9661 38.9381 31.9006 38.923C31.8326 38.9079 31.7747 38.8827 31.7218 38.8474C31.6689 38.8122 31.6261 38.7643 31.5934 38.7064C31.5606 38.6485 31.543 38.578 31.543 38.4923C31.543 38.3891 31.5707 38.2959 31.6286 38.2103C31.6866 38.1246 31.7672 38.0491 31.8729 37.9811C31.9787 37.9131 32.1071 37.8526 32.2557 37.7998C32.4043 37.7469 32.5705 37.7015 32.7569 37.6638V38.7568L32.7544 38.7593Z" fill="#001C71"/>
<path d="M31.8629 36.0998C31.9006 36.1376 31.9434 36.1678 31.9938 36.188C32.0442 36.2081 32.0971 36.2207 32.155 36.2207C32.2129 36.2207 32.2658 36.2106 32.3162 36.188C32.3665 36.1678 32.4094 36.1376 32.4471 36.0998C32.4849 36.062 32.5151 36.0192 32.5353 35.9689C32.5579 35.9185 32.568 35.8656 32.568 35.8077C32.568 35.7498 32.5579 35.6969 32.5353 35.6465C32.5126 35.5961 32.4849 35.5533 32.4471 35.5155C32.4094 35.4778 32.3665 35.4475 32.3162 35.4274C32.2658 35.4047 32.2129 35.3946 32.155 35.3946C32.0971 35.3946 32.0442 35.4047 31.9938 35.4274C31.9434 35.4501 31.9006 35.4778 31.8629 35.5155C31.8251 35.5533 31.7949 35.5961 31.7747 35.6465C31.752 35.6969 31.742 35.7498 31.742 35.8077C31.742 35.8656 31.752 35.9185 31.7747 35.9689C31.7974 36.0192 31.8251 36.062 31.8629 36.0998Z" fill="#001C71"/>
<path d="M32.8299 36.0998C32.8677 36.1376 32.9105 36.1678 32.9609 36.188C33.0113 36.2081 33.0642 36.2207 33.1221 36.2207C33.18 36.2207 33.2329 36.2106 33.2833 36.188C33.3336 36.1678 33.3764 36.1376 33.4142 36.0998C33.452 36.062 33.4822 36.0192 33.5024 35.9689C33.525 35.9185 33.5351 35.8656 33.5351 35.8077C33.5351 35.7498 33.525 35.6969 33.5024 35.6465C33.4797 35.5961 33.452 35.5533 33.4142 35.5155C33.3764 35.4778 33.3336 35.4475 33.2833 35.4274C33.2329 35.4047 33.18 35.3946 33.1221 35.3946C33.0642 35.3946 33.0113 35.4047 32.9609 35.4274C32.9105 35.4501 32.8677 35.4778 32.8299 35.5155C32.7922 35.5533 32.7619 35.5961 32.7418 35.6465C32.7191 35.6969 32.7091 35.7498 32.7091 35.8077C32.7091 35.8656 32.7191 35.9185 32.7418 35.9689C32.7619 36.0192 32.7922 36.062 32.8299 36.0998Z" fill="#001C71"/>
<path d="M34.9001 40.3812C34.8497 40.3585 34.7968 40.3484 34.7389 40.3484C34.681 40.3484 34.6281 40.3585 34.5777 40.3812C34.5274 40.4013 34.4846 40.4315 34.4468 40.4693C34.409 40.5071 34.3788 40.5499 34.3586 40.6003C34.3385 40.6506 34.3259 40.7035 34.3259 40.7614C34.3259 40.8194 34.336 40.8723 34.3586 40.9226C34.3813 40.973 34.409 41.0158 34.4468 41.0536C34.4846 41.0914 34.5274 41.1216 34.5777 41.1417C34.6281 41.1619 34.681 41.1745 34.7389 41.1745C34.7968 41.1745 34.8497 41.1644 34.9001 41.1417C34.9505 41.1191 34.9933 41.0914 35.0311 41.0536C35.0688 41.0158 35.0991 40.973 35.1192 40.9226C35.1419 40.8723 35.1519 40.8194 35.1519 40.7614C35.1519 40.7035 35.1419 40.6506 35.1192 40.6003C35.0965 40.5499 35.0688 40.5071 35.0311 40.4693C34.9933 40.4315 34.9505 40.4013 34.9001 40.3812Z" fill="#001C71"/>
<path d="M36.0888 40.9251C36.109 40.8748 36.1215 40.8219 36.1215 40.764C36.1215 40.706 36.1115 40.6532 36.0888 40.6028C36.0661 40.5524 36.0384 40.5096 36.0007 40.4718C35.9629 40.4341 35.9201 40.4038 35.8697 40.3837C35.8193 40.361 35.7664 40.3509 35.7085 40.3509C35.6506 40.3509 35.5977 40.361 35.5473 40.3837C35.497 40.4038 35.4542 40.4341 35.4164 40.4718C35.3786 40.5096 35.3484 40.5524 35.3282 40.6028C35.3056 40.6532 35.2955 40.706 35.2955 40.764C35.2955 40.8219 35.3056 40.8748 35.3282 40.9251C35.3484 40.9755 35.3786 41.0183 35.4164 41.0561C35.4542 41.0939 35.497 41.1241 35.5473 41.1443C35.5977 41.1644 35.6506 41.177 35.7085 41.177C35.7664 41.177 35.8193 41.1669 35.8697 41.1443C35.9201 41.1216 35.9629 41.0939 36.0007 41.0561C36.0384 41.0183 36.0687 40.9755 36.0888 40.9251Z" fill="#001C71"/>
<path d="M38.2144 39.744C38.3982 39.681 38.5468 39.5979 38.6627 39.4896C38.7785 39.3813 38.8616 39.2605 38.912 39.1194C38.9623 38.9784 38.9875 38.8298 38.9875 38.6711C38.9875 38.3765 38.8767 38.0642 38.6576 37.7368C38.4385 37.4094 38.1187 37.0719 37.6981 36.7244L37.0911 37.3187C37.2221 37.4245 37.3531 37.5378 37.479 37.6587C37.6074 37.7796 37.7233 37.903 37.824 38.0264C37.9247 38.1498 38.0079 38.2732 38.0708 38.3941C38.1338 38.515 38.164 38.6258 38.164 38.7291C38.164 38.787 38.1564 38.8399 38.1413 38.8902C38.1262 38.9406 38.096 38.9834 38.0532 39.0187C38.0104 39.0539 37.9474 39.0816 37.8668 39.1018C37.7862 39.1219 37.6805 39.132 37.552 39.132H36.3129V39.8397H37.5369C37.8013 39.8397 38.0255 39.8095 38.2093 39.7465L38.2144 39.744Z" fill="#001C71"/>
<path d="M54.8814 35.1982H54.0428V39.1295H53.2721C53.1412 39.1295 53.0152 39.1194 52.8918 39.0968C52.771 39.0766 52.6576 39.0439 52.5519 39.0011C52.5569 38.9633 52.5594 38.928 52.5619 38.8902C52.5644 38.8525 52.567 38.8147 52.567 38.7744V37.1928H51.7283V38.6611C51.7283 38.7517 51.7208 38.8273 51.7057 38.8877C51.6905 38.9482 51.6679 38.996 51.6351 39.0313C51.6049 39.0665 51.5621 39.0917 51.5117 39.1068C51.4614 39.1219 51.4009 39.1295 51.3279 39.1295C51.2196 39.1295 51.1088 39.1119 50.9955 39.0791C50.8821 39.0464 50.7663 38.996 50.6479 38.9331C50.6479 38.9079 50.6504 38.8802 50.6529 38.855C50.6529 38.8273 50.6529 38.8021 50.6529 38.7769V37.5429H49.8143V38.6636C49.8143 38.7542 49.8068 38.8298 49.7916 38.8902C49.7765 38.9507 49.7539 38.9985 49.7211 39.0338C49.6909 39.0691 49.6481 39.0942 49.5977 39.1094C49.5474 39.1245 49.4869 39.132 49.4139 39.132C49.3031 39.132 49.1897 39.1144 49.0739 39.0791C48.958 39.0439 48.8397 38.9935 48.7213 38.928C48.7263 38.9028 48.7289 38.8777 48.7289 38.8525V37.835H47.8902V38.6636C47.8902 38.7542 47.8827 38.8298 47.8676 38.8902C47.8524 38.9507 47.8298 38.9985 47.797 39.0338C47.7668 39.0691 47.724 39.0942 47.6736 39.1094C47.6233 39.1245 47.5628 39.132 47.4923 39.132H46.5252C46.4446 39.132 46.359 39.1295 46.2759 39.1219C46.1903 39.1144 46.1097 39.1068 46.0316 39.0968C45.9535 39.0867 45.8805 39.0741 45.81 39.0615C45.742 39.0489 45.6815 39.0338 45.6287 39.0187C45.7772 38.8651 45.8981 38.724 45.9913 38.5906C46.0845 38.4571 46.1575 38.3362 46.2129 38.2254C46.2658 38.1146 46.3036 38.0163 46.3237 37.9282C46.3439 37.8401 46.354 37.7645 46.354 37.7015C46.354 37.5781 46.3187 37.4724 46.2482 37.3842C46.1777 37.2961 46.0895 37.2256 45.9787 37.1702C45.8679 37.1147 45.747 37.0745 45.6135 37.0493C45.4801 37.0241 45.3466 37.0115 45.2156 37.0115C45.0545 37.0115 44.9008 37.0241 44.7522 37.0467C44.6037 37.0694 44.4677 37.0996 44.3417 37.1349C44.2158 37.1702 44.1025 37.2079 44.0017 37.2507C43.901 37.2936 43.8154 37.3313 43.7423 37.3691C43.7096 37.3893 43.6794 37.422 43.6466 37.4698C43.6139 37.5177 43.5862 37.5731 43.561 37.6335C43.5358 37.694 43.5132 37.7544 43.4905 37.8149C43.4704 37.8753 43.4552 37.9307 43.4477 37.9735C43.4653 37.9937 43.493 38.0264 43.5283 38.0743C43.5661 38.1221 43.6114 38.1851 43.6693 38.2657C43.7071 38.316 43.7499 38.3714 43.8003 38.4369C43.8506 38.5024 43.906 38.5679 43.964 38.6359C44.0219 38.7039 44.0849 38.7719 44.1478 38.8399C44.2108 38.9079 44.2737 38.9683 44.3367 39.0212C44.2611 39.0489 44.1529 39.0741 44.0118 39.0942C43.8708 39.1169 43.7121 39.127 43.5384 39.127H42.5159V38.6258C42.5159 38.4143 42.4957 38.2304 42.4554 38.0718C42.4151 37.9131 42.3622 37.7746 42.2942 37.6612C42.2262 37.5479 42.1482 37.4522 42.06 37.3767C41.9719 37.3011 41.8787 37.2407 41.778 37.1979C41.6797 37.1525 41.579 37.1223 41.4757 37.1047C41.3725 37.087 41.2743 37.0795 41.1786 37.0795C40.9469 37.0795 40.7353 37.1198 40.549 37.1979C40.3626 37.2784 40.2014 37.3842 40.0705 37.5202C39.9395 37.6562 39.8362 37.8098 39.7632 37.9886C39.6902 38.1649 39.6549 38.3538 39.6549 38.5477C39.6549 38.6938 39.6826 38.8424 39.738 38.996C39.7934 39.1496 39.8816 39.2882 40.005 39.4116C40.1284 39.5375 40.2896 39.6382 40.491 39.7163C40.69 39.7944 40.9368 39.8347 41.2264 39.8347H41.6168C41.5639 39.9253 41.4883 40.011 41.3926 40.0915C41.2969 40.1721 41.1836 40.2452 41.0501 40.3106C40.9167 40.3761 40.7681 40.429 40.5993 40.4718C40.4306 40.5146 40.2493 40.5423 40.0503 40.5549L40.1284 41.245C40.4029 41.2173 40.6648 41.1669 40.9141 41.0939C41.1635 41.0209 41.3876 40.9251 41.5916 40.8068C41.7956 40.6884 41.9719 40.5474 42.1205 40.3862C42.2691 40.225 42.3824 40.0412 42.4605 39.8347H43.493C43.6341 39.8347 43.7726 39.8246 43.906 39.8044C44.0395 39.7843 44.1654 39.7591 44.2863 39.7264C44.4072 39.6936 44.5205 39.6559 44.6263 39.6156C44.7321 39.5727 44.8303 39.5299 44.9185 39.4846C44.9839 39.5173 45.062 39.5526 45.1602 39.5954C45.2559 39.6357 45.3642 39.6735 45.4876 39.7113C45.611 39.7465 45.7445 39.7767 45.8906 39.7994C46.0366 39.8221 46.1903 39.8347 46.3515 39.8347H47.7769C47.9607 39.8347 48.1118 39.8044 48.2327 39.744C48.3536 39.6836 48.4518 39.603 48.5274 39.5022C48.6533 39.6004 48.8044 39.681 48.9782 39.7415C49.152 39.8019 49.3459 39.8347 49.5599 39.8347H49.701C49.8848 39.8347 50.0359 39.8044 50.1543 39.7465C50.2727 39.6886 50.3709 39.608 50.4464 39.5098C50.5724 39.6055 50.7209 39.6861 50.8922 39.7465C51.0635 39.807 51.2549 39.8372 51.4689 39.8372H51.61C51.7711 39.8372 51.9071 39.8145 52.0205 39.7667C52.1338 39.7188 52.227 39.6559 52.3025 39.5727C52.4184 39.6533 52.5519 39.7163 52.703 39.7641C52.8314 39.8044 52.9901 39.8246 53.1664 39.8321C53.189 39.8321 53.2142 39.8372 53.2419 39.8372C53.2469 39.8372 53.2495 39.8372 53.2545 39.8372H54.8739V35.2007L54.8814 35.1982ZM41.6873 39.1295H41.2289C40.957 39.1295 40.7605 39.0691 40.6346 38.9507C40.5087 38.8323 40.4457 38.6686 40.4457 38.4621C40.4457 38.3563 40.4633 38.2606 40.4986 38.1725C40.5339 38.0843 40.5817 38.0113 40.6396 37.9483C40.6976 37.8854 40.7656 37.8375 40.8411 37.8023C40.9167 37.767 40.9972 37.7494 41.0778 37.7494C41.1534 37.7494 41.2264 37.7645 41.2995 37.7922C41.3725 37.8199 41.438 37.8728 41.4959 37.9509C41.5538 38.0289 41.5992 38.1372 41.6344 38.2757C41.6697 38.4143 41.6873 38.5956 41.6873 38.8172V39.1295ZM45.5304 38.1246C45.5103 38.1826 45.4776 38.243 45.4322 38.311C45.3869 38.379 45.329 38.4495 45.2559 38.5251C45.1829 38.6006 45.0947 38.6762 44.989 38.7517C44.9185 38.6988 44.8429 38.6308 44.7648 38.5477C44.6868 38.4672 44.6112 38.3815 44.5382 38.2934C44.4651 38.2052 44.3971 38.1221 44.3392 38.039C44.2813 37.9559 44.2334 37.8879 44.2007 37.83C44.2611 37.8023 44.3266 37.7771 44.3946 37.7519C44.4626 37.7292 44.5331 37.7091 44.6037 37.6915C44.6742 37.6738 44.7422 37.6612 44.8076 37.6537C44.8731 37.6461 44.9311 37.6411 44.9839 37.6411C45.0696 37.6411 45.1476 37.6512 45.2207 37.6688C45.2912 37.6864 45.3541 37.7116 45.4045 37.7418C45.4574 37.7721 45.4952 37.8073 45.5229 37.8476C45.5506 37.8879 45.5657 37.9332 45.5657 37.9811C45.5657 38.0189 45.5556 38.0667 45.5355 38.1246H45.5304Z" fill="#001C71"/>
<path d="M56.5587 35.2033H55.7201V39.8397H56.5587V35.2033Z" fill="#001C71"/>
<path d="M59.9082 36.0998C59.946 36.1376 59.9888 36.1678 60.0392 36.188C60.0895 36.2081 60.1424 36.2207 60.2004 36.2207C60.2583 36.2207 60.3112 36.2106 60.3615 36.188C60.4119 36.1653 60.4547 36.1376 60.4925 36.0998C60.5303 36.062 60.5605 36.0192 60.5806 35.9689C60.6033 35.9185 60.6134 35.8656 60.6134 35.8077C60.6134 35.7498 60.6033 35.6969 60.5806 35.6465C60.5605 35.5961 60.5303 35.5533 60.4925 35.5155C60.4547 35.4778 60.4119 35.4475 60.3615 35.4274C60.3112 35.4072 60.2583 35.3946 60.2004 35.3946C60.1424 35.3946 60.0895 35.4047 60.0392 35.4274C59.9888 35.4501 59.946 35.4778 59.9082 35.5155C59.8704 35.5533 59.8402 35.5961 59.8201 35.6465C59.7999 35.6969 59.7873 35.7498 59.7873 35.8077C59.7873 35.8656 59.7974 35.9185 59.8201 35.9689C59.8427 36.0192 59.8704 36.062 59.9082 36.0998Z" fill="#001C71"/>
<path d="M59.193 39.3713C59.3139 39.4544 59.4473 39.5173 59.5959 39.5576C59.7445 39.5979 59.8906 39.6181 60.0341 39.6181C60.1777 39.6181 60.3162 39.603 60.4472 39.5727C60.5781 39.5425 60.7141 39.4922 60.8552 39.4166C60.8829 39.4745 60.9206 39.5299 60.9685 39.5803C61.0163 39.6307 61.0768 39.676 61.1498 39.7138C61.2228 39.7516 61.3135 39.7818 61.4193 39.8044C61.5251 39.8271 61.651 39.8372 61.7971 39.8372H62.5727C62.7138 39.8372 62.8523 39.8271 62.9858 39.807C63.1192 39.7868 63.2452 39.7616 63.366 39.7289C63.4869 39.6962 63.6003 39.6584 63.706 39.6181C63.8118 39.5753 63.91 39.5324 63.9982 39.4871C64.0636 39.5199 64.1417 39.5551 64.2399 39.5979C64.3356 39.6382 64.4439 39.676 64.5673 39.7138C64.6907 39.749 64.8242 39.7793 64.9703 39.8019C65.1164 39.8246 65.27 39.8372 65.4312 39.8372H66.1565C66.5216 39.8372 66.7987 39.7037 66.9901 39.4342C67.048 39.4871 67.1135 39.5375 67.1865 39.5904C67.2595 39.6433 67.3427 39.6911 67.4384 39.7314C67.5341 39.7742 67.6423 39.807 67.7607 39.8321C67.8791 39.8573 68.0151 39.8699 68.1687 39.8699C68.3828 39.8699 68.5691 39.8347 68.7354 39.7616C68.899 39.6886 69.0376 39.5929 69.1509 39.472C69.2642 39.3511 69.3473 39.2126 69.4053 39.059C69.4632 38.9028 69.4934 38.7417 69.4934 38.5754C69.4934 38.4697 69.4808 38.3614 69.4556 38.248C69.4304 38.1347 69.3927 38.0264 69.3423 37.9181C69.2919 37.8124 69.229 37.7116 69.1509 37.6159C69.0753 37.5202 68.9847 37.4371 68.8789 37.3666C68.7757 37.2961 68.6573 37.2382 68.5263 37.1979C68.3954 37.155 68.2493 37.1349 68.0906 37.1349C67.9798 37.1349 67.8539 37.155 67.7154 37.1953C67.5769 37.2356 67.4358 37.3137 67.2898 37.4321C67.1437 37.5504 67.0052 37.7167 66.8692 37.9332C66.7332 38.1498 66.6123 38.4319 66.509 38.7845C66.4713 38.9028 66.4134 38.991 66.3353 39.0464C66.2547 39.1018 66.164 39.1295 66.0583 39.1295H65.6024C65.5193 39.1295 65.4362 39.127 65.3531 39.1194C65.2675 39.1119 65.1869 39.1043 65.1088 39.0942C65.0307 39.0842 64.9577 39.0716 64.8872 39.059C64.8192 39.0464 64.7587 39.0313 64.7058 39.0162C64.8544 38.8625 64.9753 38.7215 65.0685 38.588C65.1617 38.4546 65.2347 38.3337 65.2901 38.2229C65.343 38.112 65.3808 38.0138 65.4009 37.9257C65.4211 37.8375 65.4312 37.762 65.4312 37.699C65.4312 37.5756 65.3959 37.4698 65.3254 37.3817C65.2549 37.2936 65.1667 37.223 65.0559 37.1676C64.9451 37.1122 64.8242 37.0719 64.6882 37.0467C64.5547 37.0216 64.4213 37.009 64.2903 37.009C64.1291 37.009 63.9755 37.0216 63.8269 37.0442C63.6783 37.0669 63.5423 37.0971 63.4164 37.1324C63.2905 37.1676 63.1772 37.2054 63.0764 37.2482C62.9757 37.291 62.8901 37.3288 62.817 37.3666C62.7843 37.3867 62.7541 37.4195 62.7213 37.4673C62.6886 37.5152 62.6609 37.5706 62.6357 37.631C62.6105 37.6915 62.5878 37.7519 62.5652 37.8124C62.5425 37.8728 62.5299 37.9282 62.5224 37.971C62.54 37.9912 62.5652 38.0239 62.603 38.0718C62.6407 38.1196 62.6861 38.1826 62.744 38.2632C62.7818 38.3135 62.8246 38.3689 62.8749 38.4344C62.9253 38.4999 62.9807 38.5654 63.0386 38.6334C63.0966 38.7014 63.1595 38.7694 63.2225 38.8374C63.2854 38.9054 63.3484 38.9658 63.4114 39.0187C63.3358 39.0464 63.2275 39.0716 63.0865 39.0917C62.9455 39.1144 62.7868 39.1245 62.613 39.1245H61.9406C61.8751 39.1245 61.8197 39.1169 61.7819 39.1043C61.7416 39.0917 61.7114 39.0691 61.6888 39.0388C61.6661 39.0086 61.651 38.9658 61.6434 38.9154C61.6359 38.8651 61.6334 38.7996 61.6334 38.724V36.6388H60.7998V37.0039C60.6738 37.0342 60.5378 37.0694 60.3892 37.1147C60.2407 37.1601 60.0921 37.2104 59.9435 37.2709C59.7949 37.3313 59.6488 37.4044 59.5103 37.485C59.3718 37.5681 59.2484 37.6612 59.1401 37.767C59.0318 37.8728 58.9437 37.9912 58.8807 38.1246C58.8152 38.2581 58.785 38.4042 58.785 38.5679C58.785 38.7543 58.8228 38.9129 58.9008 39.0439C58.9764 39.1773 59.0746 39.2831 59.1955 39.3688L59.193 39.3713ZM67.3502 38.5175C67.4006 38.384 67.461 38.2657 67.529 38.1624C67.597 38.0592 67.6751 37.9761 67.7607 37.9131C67.8463 37.8501 67.942 37.8174 68.0453 37.8174C68.1486 37.8174 68.2493 37.8426 68.3299 37.8929C68.413 37.9433 68.481 38.0063 68.5389 38.0818C68.5943 38.1574 68.6371 38.238 68.6648 38.3261C68.6925 38.4143 68.7076 38.4949 68.7076 38.5704C68.7076 38.6812 68.6925 38.7769 68.6598 38.855C68.6271 38.9331 68.5817 38.996 68.5188 39.0439C68.4583 39.0917 68.3828 39.127 68.2971 39.1496C68.2115 39.1723 68.1158 39.1824 68.01 39.1824C67.9395 39.1824 67.864 39.1748 67.7859 39.1572C67.7078 39.1421 67.6323 39.1194 67.5592 39.0968C67.4862 39.0716 67.4207 39.0439 67.3628 39.0136C67.3049 38.9834 67.2621 38.9557 67.2344 38.9255C67.2621 38.7845 67.3024 38.6485 67.3527 38.515L67.3502 38.5175ZM63.4089 38.0415C63.3484 37.9584 63.3031 37.8904 63.2703 37.8325C63.3308 37.8048 63.3963 37.7796 63.4643 37.7544C63.5323 37.7318 63.6028 37.7116 63.6733 37.694C63.7438 37.6764 63.8118 37.6638 63.8773 37.6562C63.9428 37.6487 64.0007 37.6436 64.0536 37.6436C64.1392 37.6436 64.2173 37.6537 64.2903 37.6713C64.3608 37.6889 64.4238 37.7141 64.4742 37.7444C64.527 37.7746 64.5648 37.8098 64.5925 37.8501C64.6202 37.8904 64.6353 37.9358 64.6353 37.9836C64.6353 38.0214 64.6253 38.0692 64.6051 38.1272C64.585 38.1851 64.5522 38.2455 64.5069 38.3135C64.4616 38.3815 64.4036 38.452 64.3306 38.5276C64.2576 38.6031 64.1694 38.6787 64.0636 38.7542C63.9931 38.7014 63.9176 38.6334 63.8395 38.5503C63.7614 38.4697 63.6859 38.384 63.6128 38.2959C63.5398 38.2078 63.4718 38.1246 63.4139 38.0415H63.4089ZM59.6715 38.2128C59.7294 38.1272 59.81 38.0516 59.9158 37.9836C60.0215 37.9156 60.15 37.8552 60.2986 37.8023C60.4472 37.7494 60.6134 37.7041 60.7998 37.6663V38.7593C60.7141 38.8147 60.6134 38.86 60.5001 38.8953C60.3867 38.9305 60.2684 38.9457 60.145 38.9457C60.077 38.9457 60.0115 38.9381 59.946 38.923C59.8805 38.9079 59.8201 38.8827 59.7672 38.8474C59.7143 38.8122 59.6715 38.7643 59.6387 38.7064C59.606 38.6485 59.5884 38.578 59.5884 38.4923C59.5884 38.3891 59.6161 38.2959 59.674 38.2103L59.6715 38.2128Z" fill="#001C71"/>
<path d="M60.8753 36.0998C60.9131 36.1376 60.9559 36.1678 61.0063 36.188C61.0566 36.2081 61.1095 36.2207 61.1674 36.2207C61.2254 36.2207 61.2783 36.2106 61.3286 36.188C61.379 36.1678 61.4218 36.1376 61.4596 36.0998C61.4974 36.062 61.5276 36.0192 61.5477 35.9689C61.5679 35.9185 61.5805 35.8656 61.5805 35.8077C61.5805 35.7498 61.5704 35.6969 61.5477 35.6465C61.5251 35.5961 61.4974 35.5533 61.4596 35.5155C61.4218 35.4778 61.379 35.4475 61.3286 35.4274C61.2783 35.4047 61.2254 35.3946 61.1674 35.3946C61.1095 35.3946 61.0566 35.4047 61.0063 35.4274C60.9559 35.4501 60.9131 35.4778 60.8753 35.5155C60.8375 35.5533 60.8073 35.5961 60.7872 35.6465C60.7645 35.6969 60.7544 35.7498 60.7544 35.8077C60.7544 35.8656 60.7645 35.9185 60.7872 35.9689C60.8073 36.0192 60.8375 36.062 60.8753 36.0998Z" fill="#001C71"/>
<path d="M70.4403 39.5425C70.5234 39.6357 70.6292 39.7087 70.7577 39.7591C70.8861 39.812 71.0397 39.8372 71.2211 39.8372H76.5098V35.2007H75.6711V39.132H74.626C74.5731 39.132 74.5303 39.1043 74.495 39.0489C74.4598 38.9935 74.4296 38.9179 74.4018 38.8248C74.3767 38.7316 74.354 38.6233 74.3313 38.5024C74.3087 38.3815 74.291 38.2531 74.2709 38.1196C74.2457 37.9584 74.2004 37.8098 74.1374 37.6738C74.0744 37.5378 73.9913 37.422 73.8881 37.3238C73.7848 37.2256 73.6614 37.15 73.5179 37.0946C73.3743 37.0392 73.2081 37.0115 73.0217 37.0115C72.8354 37.0115 72.6616 37.0291 72.513 37.0619C72.3619 37.0946 72.2108 37.1349 72.0622 37.1802V37.8451C72.1277 37.8174 72.1957 37.7922 72.2712 37.7721C72.3468 37.7494 72.4198 37.7343 72.4929 37.7192C72.5659 37.7066 72.6339 37.6965 72.6969 37.6889C72.7623 37.6814 72.8152 37.6789 72.8606 37.6789C72.994 37.6789 73.1023 37.7091 73.1829 37.7695C73.2635 37.83 73.329 37.9081 73.3794 38.0038C73.4297 38.0995 73.465 38.2077 73.4902 38.3286C73.5154 38.4495 73.5355 38.5704 73.5531 38.6913C73.5657 38.7719 73.5859 38.8525 73.6111 38.9305C73.6362 39.0086 73.6639 39.0766 73.6916 39.1345H71.4225C71.3571 39.1345 71.3016 39.127 71.2538 39.1094C71.2059 39.0942 71.1656 39.064 71.1354 39.0237C71.1052 38.9834 71.08 38.928 71.0649 38.8575C71.0498 38.787 71.0397 38.6988 71.0397 38.5906V35.2058H70.2011V38.7694C70.2011 38.928 70.2212 39.0741 70.259 39.2076C70.2968 39.341 70.3597 39.4519 70.4403 39.5476V39.5425Z" fill="#001C71"/>
<path d="M72.926 41.1443C72.9764 41.1644 73.0293 41.177 73.0872 41.177C73.1451 41.177 73.198 41.1669 73.2484 41.1443C73.2988 41.1216 73.3416 41.0939 73.3794 41.0561C73.4171 41.0183 73.4474 40.9755 73.4675 40.9251C73.4877 40.8748 73.5002 40.8219 73.5002 40.764C73.5002 40.706 73.4902 40.6532 73.4675 40.6028C73.4448 40.5524 73.4171 40.5096 73.3794 40.4718C73.3416 40.4341 73.2988 40.4038 73.2484 40.3837C73.198 40.361 73.1451 40.3509 73.0872 40.3509C73.0293 40.3509 72.9764 40.361 72.926 40.3837C72.8757 40.4038 72.8329 40.4341 72.7951 40.4718C72.7573 40.5096 72.7271 40.5524 72.7069 40.6028C72.6843 40.6532 72.6742 40.706 72.6742 40.764C72.6742 40.8219 72.6843 40.8748 72.7069 40.9251C72.7271 40.9755 72.7573 41.0183 72.7951 41.0561C72.8329 41.0939 72.8757 41.1241 72.926 41.1443Z" fill="#001C71"/>
<path d="M78.1871 35.2033H77.3484V39.8397H78.1871V35.2033Z" fill="#001C71"/>
<path d="M57.2689 52.0592C57.4049 51.9156 57.5359 51.767 57.6593 51.6159C57.7147 51.5479 57.765 51.4749 57.8154 51.3968C57.8658 51.3188 57.9086 51.2382 57.9464 51.1551C57.9841 51.0719 58.0118 50.9863 58.0345 50.8982C58.0572 50.81 58.0672 50.7219 58.0672 50.6337C58.0672 50.47 58.0446 50.329 57.9967 50.2106C57.9489 50.0923 57.8809 49.9941 57.7927 49.916C57.7046 49.8379 57.5963 49.78 57.4729 49.7422C57.3495 49.7044 57.2085 49.6843 57.0523 49.6843C56.8836 49.6843 56.7199 49.7044 56.5562 49.7422C56.395 49.7825 56.2388 49.8379 56.0877 49.916L56.1381 50.4574C56.254 50.3844 56.3723 50.3215 56.4957 50.2711C56.6191 50.2207 56.7501 50.1955 56.8886 50.1955C56.9591 50.1955 57.0246 50.2031 57.0876 50.2207C57.1505 50.2383 57.2059 50.2635 57.2563 50.2988C57.3067 50.334 57.3444 50.3794 57.3722 50.4348C57.3999 50.4902 57.4175 50.5557 57.4175 50.6337C57.4175 50.7294 57.3923 50.8302 57.3419 50.941C57.2916 51.0493 57.2261 51.1626 57.143 51.2759C57.0599 51.3893 56.9692 51.5026 56.8659 51.6134C56.7627 51.7242 56.6619 51.8325 56.5562 51.9358C56.4529 52.039 56.3522 52.1322 56.2565 52.2204C56.1608 52.3085 56.0777 52.3815 56.0122 52.4445V52.9885H58.1705V52.4772H56.8458C56.9919 52.3412 57.1329 52.2027 57.2689 52.0592Z" fill="#001C71"/>
<path d="M60.7494 50.596C60.7192 50.47 60.6763 50.3542 60.6235 50.2434C60.5706 50.1326 60.5001 50.0369 60.4169 49.9538C60.3338 49.8706 60.2331 49.8052 60.1147 49.7573C59.9964 49.7095 59.8578 49.6868 59.6992 49.6868C59.5405 49.6868 59.4121 49.712 59.2988 49.7598C59.1854 49.8077 59.0847 49.8757 59.0016 49.9588C58.9185 50.0419 58.848 50.1401 58.7926 50.2535C58.7371 50.3643 58.6943 50.4851 58.6616 50.6086C58.6289 50.732 58.6062 50.8604 58.5936 50.9914C58.581 51.1223 58.5734 51.2482 58.5734 51.3716C58.5734 51.495 58.5785 51.626 58.5911 51.757C58.6037 51.8879 58.6238 52.0164 58.6566 52.1398C58.6868 52.2632 58.7296 52.379 58.7825 52.4898C58.8354 52.6006 58.9059 52.6963 58.989 52.7769C59.0721 52.8575 59.1728 52.923 59.2887 52.9708C59.4045 53.0187 59.5405 53.0414 59.6967 53.0414C59.8528 53.0414 59.9888 53.0187 60.1072 52.9708C60.2255 52.923 60.3263 52.8575 60.4094 52.7769C60.4925 52.6938 60.563 52.6006 60.6184 52.4898C60.6738 52.3815 60.7166 52.2632 60.7469 52.1398C60.7796 52.0164 60.7997 51.8879 60.8149 51.757C60.8275 51.626 60.835 51.4976 60.835 51.3716C60.835 51.2457 60.83 51.1148 60.8174 50.9813C60.8048 50.8478 60.7846 50.7194 60.7519 50.5934L60.7494 50.596ZM60.1802 51.7267C60.1802 51.7897 60.1752 51.8552 60.1651 51.9232C60.155 51.9912 60.1424 52.0541 60.1273 52.1171C60.1147 52.175 60.0971 52.2304 60.0744 52.2833C60.0518 52.3362 60.0241 52.3841 59.9913 52.4243C59.9586 52.4646 59.9183 52.4974 59.8679 52.5226C59.8201 52.5477 59.7621 52.5603 59.6992 52.5603C59.6186 52.5603 59.5531 52.5402 59.4977 52.4949C59.4423 52.452 59.3995 52.3941 59.3642 52.3236C59.329 52.2531 59.3038 52.175 59.2836 52.0869C59.2635 51.9987 59.2509 51.9131 59.2434 51.8224C59.2358 51.7343 59.2308 51.6487 59.2282 51.5706C59.2282 51.49 59.2282 51.4245 59.2282 51.3691C59.2282 51.3137 59.2282 51.2457 59.2282 51.1651C59.2282 51.0845 59.2333 50.9989 59.2408 50.9108C59.2484 50.8226 59.2635 50.732 59.2811 50.6438C59.2988 50.5557 59.3265 50.4751 59.3617 50.4046C59.397 50.334 59.4423 50.2761 59.4977 50.2308C59.5531 50.188 59.6211 50.1653 59.7017 50.1653C59.7798 50.1653 59.8427 50.1829 59.8981 50.2182C59.951 50.2535 59.9964 50.2988 60.0316 50.3567C60.0669 50.4146 60.0946 50.4826 60.1147 50.5582C60.1349 50.6337 60.15 50.7118 60.1601 50.7924C60.1701 50.873 60.1777 50.9511 60.1802 51.0317C60.1827 51.1122 60.1827 51.1828 60.1827 51.2482V51.7242L60.1802 51.7267Z" fill="#001C71"/>
<path d="M61.3639 50.5028L61.6888 50.9284L62.2378 50.4801V52.9885H62.8901V49.7397H62.3133L61.3639 50.5028Z" fill="#001C71"/>
<path d="M63.9503 50.5028L64.2752 50.9284L64.8242 50.4801V52.9885H65.4765V49.7397H64.8998L63.9503 50.5028Z" fill="#001C71"/>
<path d="M67.5542 51.4799H66.3328V51.9937H67.5542V51.4799Z" fill="#001C71"/>
<path d="M68.0856 50.5028L68.4105 50.9284L68.9595 50.4801V52.9885H69.6118V49.7397H69.035L68.0856 50.5028Z" fill="#001C71"/>
<path d="M72.4022 49.7397H71.5913L70.3774 51.7872V52.311H71.7751V52.986H72.3997V52.311H72.8127V51.8275H72.3997V49.7372L72.4022 49.7397ZM71.7776 51.83H70.9642L71.7676 50.4222H71.7776V51.83Z" fill="#001C71"/>
<path d="M75.0415 51.5605C74.9912 51.4925 74.9257 51.4371 74.8476 51.3943C74.7695 51.3515 74.6789 51.3213 74.5731 51.3062V51.2961C74.6663 51.2633 74.7494 51.2256 74.8224 51.1777C74.8955 51.1299 74.9609 51.0745 75.0138 51.0115C75.0667 50.9485 75.107 50.8755 75.1372 50.7924C75.1649 50.7118 75.18 50.6186 75.18 50.5179C75.18 50.3617 75.1498 50.2308 75.0894 50.125C75.0289 50.0192 74.9483 49.9336 74.8501 49.8681C74.7519 49.8027 74.6361 49.7573 74.5076 49.7296C74.3792 49.7019 74.2457 49.6868 74.1097 49.6868C73.9561 49.6868 73.8025 49.6994 73.6488 49.7246C73.4952 49.7498 73.3466 49.7926 73.2031 49.8505L73.2408 50.3718C73.3542 50.3139 73.4725 50.2711 73.5934 50.2434C73.7143 50.2157 73.8402 50.2006 73.9687 50.2006C74.0417 50.2006 74.1122 50.2081 74.1777 50.2207C74.2457 50.2333 74.3036 50.256 74.3565 50.2887C74.4069 50.3214 74.4497 50.3643 74.4799 50.4197C74.5101 50.4751 74.5252 50.5456 74.5252 50.6287C74.5252 50.6942 74.5127 50.7521 74.4875 50.7974C74.4623 50.8428 74.427 50.8831 74.3842 50.9133C74.3414 50.946 74.2885 50.9712 74.2331 50.9888C74.1777 51.0065 74.1147 51.0216 74.0518 51.0317C73.9888 51.0417 73.9259 51.0468 73.8604 51.0518C73.7974 51.0543 73.737 51.0568 73.6791 51.0568C73.6463 51.0568 73.6136 51.0568 73.5859 51.0568C73.5582 51.0568 73.5305 51.0568 73.5053 51.0568V51.5681C73.5405 51.5681 73.5808 51.5681 73.6211 51.5681C73.6614 51.5681 73.7017 51.5681 73.742 51.5681C73.8352 51.5681 73.9284 51.5731 74.0241 51.5807C74.1198 51.5882 74.2054 51.6109 74.281 51.6461C74.3565 51.6814 74.4195 51.7318 74.4673 51.7998C74.5152 51.8678 74.5404 51.961 74.5404 52.0768C74.5404 52.1574 74.5177 52.2279 74.4698 52.2858C74.422 52.3438 74.3666 52.3916 74.2986 52.4294C74.2306 52.4672 74.1576 52.4923 74.077 52.51C73.9964 52.5276 73.9233 52.5352 73.8553 52.5352C73.7319 52.5352 73.6111 52.5226 73.4876 52.4974C73.3668 52.4722 73.2484 52.4344 73.1351 52.3866L73.0973 52.9381C73.2358 52.9784 73.3768 53.0061 73.5204 53.0212C73.6614 53.0388 73.805 53.0464 73.9485 53.0464C74.1676 53.0464 74.3817 53.0086 74.5857 52.9331C74.6184 52.9205 74.6487 52.9079 74.6814 52.8953C74.7141 52.8827 74.7444 52.8676 74.7746 52.85C74.8451 52.8097 74.9081 52.7643 74.9609 52.7089C75.0138 52.6535 75.0566 52.5931 75.0894 52.5251C75.1246 52.4571 75.1498 52.3866 75.1649 52.311C75.1826 52.2355 75.1901 52.1574 75.1901 52.0793C75.1901 51.9786 75.1775 51.8829 75.1523 51.7947C75.1272 51.7066 75.0894 51.6285 75.0365 51.563L75.0415 51.5605Z" fill="#001C71"/>
<path d="M76.9253 52.0592C77.0613 51.9156 77.1923 51.767 77.3157 51.6159C77.3711 51.5479 77.4215 51.4749 77.4718 51.3968C77.5222 51.3188 77.565 51.2382 77.6028 51.1551C77.6406 51.0719 77.6683 50.9863 77.6909 50.8982C77.7136 50.81 77.7237 50.7219 77.7237 50.6337C77.7237 50.47 77.701 50.329 77.6532 50.2106C77.6053 50.0923 77.5373 49.9941 77.4492 49.916C77.361 49.8379 77.2527 49.78 77.1293 49.7422C77.0059 49.7044 76.8649 49.6843 76.7087 49.6843C76.54 49.6843 76.3763 49.7044 76.2126 49.7422C76.0514 49.7825 75.8953 49.8379 75.7442 49.916L75.7945 50.4574C75.9104 50.3844 76.0288 50.3215 76.1522 50.2711C76.2756 50.2207 76.4065 50.1955 76.545 50.1955C76.6156 50.1955 76.681 50.2031 76.744 50.2207C76.807 50.2383 76.8624 50.2635 76.9127 50.2988C76.9631 50.334 77.0009 50.3794 77.0286 50.4348C77.0563 50.4902 77.0739 50.5557 77.0739 50.6337C77.0739 50.7294 77.0487 50.8302 76.9984 50.941C76.948 51.0493 76.8825 51.1626 76.7994 51.2759C76.7188 51.3893 76.6256 51.5026 76.5224 51.6134C76.4191 51.7242 76.3184 51.8325 76.2126 51.9358C76.1093 52.039 76.0086 52.1322 75.9129 52.2204C75.8172 52.3085 75.7341 52.3815 75.6686 52.4445V52.9885H77.8269V52.4772H76.5022C76.6483 52.3412 76.7893 52.2027 76.9253 52.0592Z" fill="#001C71"/>
<path d="M70.5159 8.10231C70.7451 8.10231 70.9793 8.04438 71.1934 7.92098L71.2085 7.91091C71.6819 7.6364 71.9262 7.12263 71.8809 6.61139L76.0842 4.17606L83.9518 8.71429V11.9505H85.0876V8.05949L76.0842 2.86647L71.3117 5.6292C70.8937 5.33454 70.3245 5.29173 69.851 5.56372L69.8359 5.57379C69.1887 5.94904 68.9671 6.77761 69.3398 7.42736C69.5916 7.86305 70.0475 8.10483 70.5159 8.10483V8.10231Z" fill="url(#paint0_linear_39_16637)"/>
<path d="M78.5547 29.5091L78.5371 29.499C78.0611 29.232 77.492 29.2824 77.0764 29.5821L72.5986 27.0662V15.8515H71.4628V27.731L76.5199 30.5718C76.4796 31.0831 76.7314 31.5943 77.2074 31.8613L77.225 31.8714C77.434 31.9897 77.6632 32.0451 77.8874 32.0451C78.3608 32.0451 78.8217 31.7958 79.071 31.3526C79.4387 30.7003 79.207 29.8742 78.5522 29.5065L78.5547 29.5091Z" fill="url(#paint1_linear_39_16637)"/>
<path d="M91.5021 24.6711L91.4895 24.6787C90.9908 24.9759 90.739 25.5324 90.807 26.0739L85.8532 29.0129L76.1396 23.4044L75.5729 24.3865L85.8607 30.325L91.3862 27.046C91.628 27.2198 91.9201 27.313 92.2173 27.313C92.4641 27.313 92.7134 27.2475 92.9401 27.114L92.9527 27.1065C93.6251 26.706 93.8467 25.8346 93.4463 25.1622C93.0459 24.4898 92.1745 24.2682 91.5021 24.6686V24.6711Z" fill="url(#paint2_linear_39_16637)"/>
<path d="M96 11.1446V11.1144C95.9899 10.3664 95.3754 9.76448 94.6274 9.77455C93.8795 9.78463 93.2801 10.3966 93.2876 11.1471V11.1773C93.2952 11.7188 93.6176 12.1822 94.0809 12.3937L94.1515 18.4682L84.4378 24.0768L85.0045 25.059L95.2923 19.1205L95.2142 12.3912C95.6827 12.1721 96.005 11.6961 95.9975 11.1471L96 11.1446Z" fill="url(#paint3_linear_39_16637)"/>
<path d="M83.0451 3.486L83.0703 3.50112C83.2844 3.62452 83.5161 3.68244 83.7453 3.68244C84.0248 3.68244 84.3018 3.5943 84.531 3.4306L89.2304 6.13037V16.1638L87.0343 17.4583L85.9766 19.4403L81.2822 21.3392L78.4137 19.3597L77.5222 16.7406L75.6359 14.887L74.84 15.6954L76.5324 17.3601L77.4567 20.0775L81.1362 22.6161L86.78 20.3344L87.8831 18.2693L90.3612 16.8086V5.47305L85.0901 2.44589C85.1354 1.93465 84.8886 1.42088 84.4152 1.14889L84.39 1.13378C83.7402 0.761052 82.9117 0.985193 82.5389 1.63495C82.1662 2.28471 82.3903 3.11328 83.0401 3.486H83.0451Z" fill="url(#paint4_linear_39_16637)"/>
<path d="M67.7481 20.3822V14.5621L77.021 9.1802L78.0385 9.7544L78.2953 12.2728L80.0835 14.0257L82.4986 15.0129L83.6345 16.7532L84.808 17.6195L85.483 16.7053L84.4731 15.9598L83.2567 14.0962L80.7206 13.0586L79.3833 11.749L79.1088 9.05428L77.0135 7.87313L66.6148 13.9098V20.3822C66.1489 20.5963 65.8266 21.0672 65.8266 21.6137V21.6414C65.8266 22.3894 66.4335 22.9964 67.1815 22.9964C67.9295 22.9964 68.5364 22.3894 68.5364 21.6414V21.6137C68.5364 21.0672 68.214 20.5963 67.7481 20.3822Z" fill="url(#paint5_linear_39_16637)"/>
<defs>
<linearGradient id="paint0_linear_39_16637" x1="17.0259" y1="1.73349" x2="151.113" y2="126.147" gradientUnits="userSpaceOnUse">
<stop stop-color="#11CEC8"/>
<stop offset="0.03" stop-color="#10C9C7"/>
<stop offset="0.5" stop-color="#0080C0"/>
<stop offset="1" stop-color="#61269D"/>
</linearGradient>
<linearGradient id="paint1_linear_39_16637" x1="-107.272" y1="-7.01018" x2="-66.2767" y2="131.755" gradientUnits="userSpaceOnUse">
<stop stop-color="#11CEC8"/>
<stop offset="0.03" stop-color="#10C9C7"/>
<stop offset="0.5" stop-color="#0080C0"/>
<stop offset="1" stop-color="#61269D"/>
</linearGradient>
<linearGradient id="paint2_linear_39_16637" x1="-45.8471" y1="-108.862" x2="112.58" y2="-10.1583" gradientUnits="userSpaceOnUse">
<stop stop-color="#11CEC8"/>
<stop offset="0.03" stop-color="#10C9C7"/>
<stop offset="0.5" stop-color="#0080C0"/>
<stop offset="1" stop-color="#61269D"/>
</linearGradient>
<linearGradient id="paint3_linear_39_16637" x1="-94.9214" y1="-25.6458" x2="-33.8119" y2="105.789" gradientUnits="userSpaceOnUse">
<stop stop-color="#11CEC8"/>
<stop offset="0.03" stop-color="#10C9C7"/>
<stop offset="0.5" stop-color="#0080C0"/>
<stop offset="1" stop-color="#61269D"/>
</linearGradient>
<linearGradient id="paint4_linear_39_16637" x1="-14.325" y1="4.55427" x2="27.2673" y2="99.0108" gradientUnits="userSpaceOnUse">
<stop stop-color="#11CEC8"/>
<stop offset="0.03" stop-color="#10C9C7"/>
<stop offset="0.5" stop-color="#0080C0"/>
<stop offset="1" stop-color="#61269D"/>
</linearGradient>
<linearGradient id="paint5_linear_39_16637" x1="65.8388" y1="9.7386" x2="89.1344" y2="30.5183" gradientUnits="userSpaceOnUse">
<stop stop-color="#11CEC8"/>
<stop offset="0.03" stop-color="#10C9C7"/>
<stop offset="0.5" stop-color="#0080C0"/>
<stop offset="1" stop-color="#61269D"/>
</linearGradient>
</defs>
</svg>
